<svg width="20" height="20" viewBox="0 0 20 20" fill="none" xmlns="http://www.w3.org/2000/svg">
<path d="M9.21363 2.49523C9.38975 2.60938 9.55388 2.74082 9.70356 2.88758C9.89608 3.09043 10.0676 3.31199 10.2156 3.54892C10.3891 3.82403 10.5316 4.11733 10.6404 4.42349C10.7419 4.7596 10.7927 5.15196 10.7929 5.60056C10.7792 6.42303 10.5966 7.08081 10.2451 7.5739C10.078 7.80659 9.89495 8.02756 9.69729 8.23524C9.48366 8.43691 9.2563 8.64243 9.01522 8.8518C8.87252 8.99996 8.74452 9.16145 8.633 9.33402C8.49463 9.52251 8.42202 9.75079 8.42623 9.98409C8.42623 10.2235 8.49695 10.4212 8.63837 10.5772C8.74738 10.7149 8.86413 10.8464 8.98806 10.9711L9.77248 11.6102C10.2502 11.9961 10.6808 12.4364 11.0555 12.9219C11.4016 13.4076 11.5818 14.043 11.5961 14.8279C11.5961 15.9414 11.1014 16.928 10.112 17.7876C9.08603 18.6773 7.60552 19.137 5.67049 19.1666C4.05074 19.1516 2.84144 18.8084 2.04261 18.137C1.23641 17.5102 0.833313 16.7605 0.833313 15.8878C0.833313 15.4625 0.964397 14.9888 1.22656 14.4667C1.48117 13.9441 1.94186 13.4853 2.60861 13.0903C3.33914 12.6716 4.13798 12.3837 4.96872 12.2398C5.78427 12.1211 6.46216 12.054 7.00241 12.0384C6.83429 11.8183 6.68517 11.5844 6.55665 11.3394C6.40448 11.0988 6.32839 10.8094 6.32839 10.4713C6.32839 10.2685 6.35744 10.0994 6.41552 9.96392C6.46624 9.82137 6.51328 9.68999 6.55665 9.56979C6.31015 9.59863 6.0622 9.61348 5.814 9.61427C4.58273 9.59944 3.64436 9.2146 2.99888 8.45974C2.32258 7.75728 1.98442 6.93896 1.98442 6.00478C1.98442 4.87645 2.46301 3.85261 3.42018 2.93326C4.0766 2.39529 4.75966 2.04405 5.46939 1.87956C6.17095 1.73741 6.82846 1.66643 7.44191 1.66663H12.0666L10.6395 2.49523H9.21363ZM10.107 15.7259C10.107 15.1428 9.9155 14.6345 9.53259 14.2009C9.1274 13.7895 8.49416 13.2853 7.63287 12.6885C7.46041 12.6723 7.28723 12.6647 7.114 12.6659C6.99625 12.6509 6.69429 12.6658 6.20815 12.7107C5.71095 12.7825 5.21992 12.8915 4.73928 13.0369C4.62152 13.082 4.45592 13.1494 4.24249 13.2392C4.0083 13.3493 3.7893 13.4888 3.59085 13.6544C3.3696 13.8506 3.18619 14.0853 3.04961 14.3469C2.88013 14.6385 2.79549 14.9898 2.79569 15.4008C2.79569 16.2081 3.16368 16.8734 3.89966 17.3967C4.59904 17.9199 5.55631 18.1891 6.77147 18.2043C7.86112 18.1892 8.69308 17.95 9.26734 17.4866C9.82708 17.0301 10.107 16.4432 10.107 15.7259ZM6.88277 8.98852C7.49144 8.96598 7.99867 8.7485 8.40445 8.33608C8.59127 8.06551 8.71977 7.75948 8.78189 7.43719C8.81231 7.17993 8.82914 6.92127 8.83231 6.66226C8.83231 5.75596 8.59909 4.84224 8.13264 3.92111C7.91383 3.47923 7.62601 3.1197 7.26916 2.84251C6.90475 2.58074 6.48573 2.44234 6.01212 2.42732C5.38515 2.44234 4.86409 2.69324 4.44896 3.18C4.10109 3.68082 3.9248 4.2797 3.94621 4.88791C3.94621 5.71948 4.19097 6.58456 4.6805 7.48315C4.9117 7.89624 5.22364 8.25923 5.59798 8.55079C5.96276 8.83939 6.41657 8.99401 6.88277 8.98852Z" fill="white"/>
<path d="M18.3333 4.17646H15.9067V1.76449H14.7314V4.17646H12.3047V5.34492H14.7314V7.75688H15.9067V5.34492H18.3333V4.17646Z" fill="white"/>
</svg>
