<svg width="20" height="20" viewBox="0 0 20 20" fill="none" xmlns="http://www.w3.org/2000/svg">
<path d="M6.50253 16.6245V7.65648H3.50972V16.6245H6.50285H6.50253ZM5.00675 6.43226C6.05019 6.43226 6.6998 5.74362 6.6998 4.88301C6.68027 4.00279 6.05019 3.33337 5.02659 3.33337C4.0023 3.33337 3.33331 4.00279 3.33331 4.88293C3.33331 5.74354 3.98269 6.43218 4.98714 6.43218H5.00652L5.00675 6.43226ZM8.1591 16.6245H11.1517V11.6169C11.1517 11.3492 11.1712 11.0809 11.2503 10.8897C11.4665 10.3539 11.9589 9.79936 12.7859 9.79936C13.8686 9.79936 14.3019 10.6217 14.3019 11.8274V16.6245H17.2944V11.4825C17.2944 8.72804 15.8182 7.44623 13.8492 7.44623C12.2349 7.44623 11.5259 8.34489 11.132 8.95696H11.1519V7.65679H8.15925C8.19832 8.4981 8.15902 16.6248 8.15902 16.6248L8.1591 16.6245Z" fill="white"/>
</svg>
