<svg width="203" height="46" viewBox="0 0 203 46" fill="none" xmlns="http://www.w3.org/2000/svg">
<g clip-path="url(#clip0_5_5221)">
<path d="M69.5188 11.6437H66.2811C66.0832 9.34373 64.6693 8.19372 62.0396 8.19372C61.1003 8.15227 60.1715 8.40845 59.3816 8.92685C59.0684 9.15122 58.8152 9.45143 58.6449 9.8003C58.4746 10.1492 58.3925 10.5357 58.406 10.925C58.3714 11.2387 58.42 11.5561 58.5468 11.8443C58.6736 12.1325 58.8739 12.3809 59.1271 12.5637C60.1491 13.0436 61.2209 13.4053 62.3224 13.6418L63.3262 13.915C64.8446 14.2258 66.3242 14.7079 67.7374 15.3525C68.5445 15.7481 69.2198 16.3756 69.6797 17.1575C70.1396 17.9393 70.3638 18.8411 70.3247 19.7512C70.338 20.5592 70.1888 21.3614 69.8864 22.1087C69.6215 22.771 69.2216 23.3688 68.7129 23.8625C68.2003 24.3491 67.6129 24.7473 66.9739 25.0412C66.3037 25.3459 65.6017 25.5725 64.8814 25.7169C64.1345 25.8505 63.3776 25.9178 62.6193 25.9181C60.5144 26.0192 58.4374 25.3964 56.7235 24.15C55.9623 23.5318 55.3591 22.7359 54.9653 21.8299C54.5715 20.924 54.3986 19.9347 54.4614 18.9462H57.8122C57.7687 19.5557 57.8752 20.1665 58.1221 20.7237C58.3689 21.2808 58.7483 21.7667 59.226 22.1375C60.2869 22.8809 61.5585 23.2496 62.8455 23.1868C63.9231 23.2499 64.9926 22.9629 65.8994 22.3675C66.2365 22.106 66.5064 21.7655 66.6861 21.375C66.8658 20.9845 66.95 20.5557 66.9315 20.125C66.9411 19.8422 66.8947 19.5603 66.7951 19.2961C66.6955 19.0319 66.5448 18.7907 66.3518 18.5869C65.9927 18.2177 65.5584 17.9331 65.0794 17.7531C64.6269 17.5806 63.8352 17.3506 62.7182 17.0487H62.4213C60.7895 16.6815 59.1945 16.1618 57.6567 15.4962C56.9203 15.1479 56.2944 14.5972 55.8497 13.9063C55.405 13.2153 55.1592 12.4117 55.14 11.5862V11.1981C55.1144 10.3933 55.2781 9.59391 55.6174 8.86635C55.9568 8.1388 56.462 7.50409 57.0911 7.01498C58.5962 5.89903 60.434 5.34556 62.2941 5.4481C64.1273 5.36977 65.9352 5.90505 67.4405 6.97185C68.1188 7.534 68.6596 8.24852 69.0202 9.0592C69.3808 9.86988 69.5515 10.7546 69.5188 11.6437Z" fill="#8A8A8A"/>
<path d="M85.3822 21.0738C85.103 22.5279 84.3017 23.8243 83.1342 24.7107C81.9387 25.5875 80.4935 26.042 79.0199 26.0044C78.0798 26.0536 77.1406 25.8925 76.2684 25.5323C75.3963 25.1722 74.6125 24.6218 73.9724 23.9201C72.6968 22.4424 72.0286 20.5227 72.1062 18.5582C72.0353 16.535 72.7168 14.559 74.0149 13.0238C74.6226 12.3169 75.3759 11.7547 76.2214 11.3771C77.0668 10.9995 77.9836 10.8157 78.9068 10.8388C79.821 10.7898 80.7342 10.9533 81.577 11.317C82.4198 11.6807 83.1699 12.2349 83.7704 12.9376C85.0532 14.5985 85.6921 16.6802 85.566 18.7882V19.1188H75.2025C75.1672 20.3215 75.5418 21.4997 76.2629 22.4538C76.6194 22.8495 77.0582 23.1593 77.5474 23.3607C78.0365 23.5621 78.5637 23.6501 79.0906 23.6182C79.8269 23.6496 80.5527 23.4322 81.1548 23.0001C81.7516 22.4743 82.1882 21.786 82.4131 21.0163L85.3822 21.0738ZM82.4697 17.0632C82.4543 16.0012 82.0628 14.9804 81.3669 14.1882C81.0475 13.8467 80.6607 13.578 80.2318 13.3996C79.8029 13.2212 79.3416 13.1372 78.8785 13.1532C78.423 13.1339 77.9685 13.2123 77.5447 13.3832C77.1209 13.5541 76.7372 13.8136 76.4184 14.1451C75.7328 14.9485 75.3256 15.9585 75.259 17.0201L82.4697 17.0632Z" fill="#8A8A8A"/>
<path d="M90.9103 11.2556V13.3688C91.4065 12.5783 92.096 11.9323 92.9113 11.4938C93.7266 11.0554 94.6399 10.8396 95.5618 10.8675C96.2174 10.8172 96.876 10.9105 97.4931 11.1411C98.1102 11.3717 98.6714 11.7343 99.1389 12.2044C100.009 13.2704 100.453 14.6302 100.383 16.0138V25.53H97.216V17.25C97.223 16.7694 97.1947 16.2889 97.1312 15.8125C97.0686 15.4156 96.9545 15.0289 96.7919 14.6625C96.6229 14.2803 96.3278 13.9701 95.9577 13.7856C95.5131 13.5848 95.0302 13.4866 94.5439 13.4981C92.2534 13.4981 91.1082 14.9356 91.1082 17.8106V25.5013H87.9695V11.2556H90.9103Z" fill="#8A8A8A"/>
<path d="M116.854 5.83618V25.5299H113.942V23.5749C113.482 24.3468 112.818 24.9717 112.025 25.3784C111.233 25.785 110.344 25.9571 109.46 25.8749C108.573 25.9154 107.688 25.7529 106.871 25.3997C106.054 25.0464 105.325 24.5113 104.738 23.8337C103.505 22.2815 102.88 20.3204 102.985 18.3281C102.901 16.3785 103.514 14.4641 104.709 12.9374C105.281 12.2642 105.995 11.7309 106.798 11.3774C107.601 11.024 108.473 10.8595 109.347 10.8962C110.216 10.8419 111.084 11.0173 111.867 11.4052C112.65 11.7931 113.321 12.3804 113.815 13.1099V5.83618H116.854ZM109.926 13.4118C109.385 13.3857 108.846 13.4922 108.354 13.7223C107.862 13.9525 107.431 14.2996 107.099 14.7343C106.37 15.7756 106.011 17.0377 106.081 18.3137C106.01 19.6343 106.379 20.9405 107.127 22.0224C107.461 22.458 107.891 22.8074 108.382 23.0422C108.873 23.277 109.412 23.3906 109.955 23.3737C110.495 23.3963 111.034 23.2882 111.525 23.0583C112.017 22.8284 112.448 22.4832 112.782 22.0512C113.53 20.9803 113.894 19.6817 113.815 18.3712C113.893 17.0676 113.523 15.777 112.768 14.7199C112.421 14.3002 111.985 13.965 111.493 13.7386C111.001 13.5123 110.466 13.4006 109.926 13.4118Z" fill="#8A8A8A"/>
<path d="M140.72 5.83618V25.5299H137.482V10.3499L132.096 25.5299H129.268L123.796 10.3499V25.5299H120.587V5.83618H125.352L130.767 21.2462L135.984 5.83618H140.72Z" fill="#8A8A8A"/>
<path d="M156.739 11.2556L151.55 25.2569C151.494 25.3814 151.395 25.6546 151.253 26.0762C151.098 26.4931 150.999 26.7662 150.956 26.9244L150.631 27.6862C150.537 27.958 150.414 28.2183 150.264 28.4625C150.179 28.6206 150.037 28.8362 149.868 29.1237C149.733 29.3652 149.561 29.5835 149.359 29.7706L148.793 30.245C148.589 30.4255 148.354 30.5667 148.1 30.6619C147.836 30.7526 147.567 30.8294 147.294 30.8919C146.973 30.9516 146.646 30.9805 146.319 30.9781C145.6 30.9728 144.882 30.92 144.17 30.82V28.1606C144.709 28.2782 145.258 28.3456 145.81 28.3619C146.012 28.3589 146.212 28.3249 146.404 28.2612C146.592 28.1926 146.762 28.0793 146.899 27.9306L147.28 27.485C147.405 27.306 147.51 27.1131 147.591 26.91L147.818 26.3206C147.818 26.1912 147.945 25.9612 148.044 25.6737C148.143 25.3862 148.185 25.1994 148.199 25.1131L142.798 11.2556H146.206L149.953 21.7781L153.501 11.2556H156.739Z" fill="#8A8A8A"/>
<path d="M175.487 18.0407C175.466 19.137 175.227 20.2177 174.785 21.2178C174.343 22.218 173.707 23.117 172.914 23.8608C172.122 24.6046 171.19 25.1779 170.174 25.5463C169.158 25.9147 168.08 26.0705 167.003 26.0045C165.765 26.0503 164.531 25.8163 163.392 25.3191C162.252 24.822 161.236 24.0742 160.415 23.1295C158.689 21.0347 157.806 18.3546 157.941 15.6257C157.917 13.8565 158.279 12.1038 159.001 10.4938C159.715 8.91613 160.868 7.5861 162.318 6.66872C163.768 5.75134 165.452 5.28698 167.159 5.33322C169.123 5.31137 171.036 5.96485 172.588 7.1876C173.347 7.77902 173.981 8.52095 174.45 9.36846C174.919 10.216 175.214 11.1514 175.317 12.1182H171.938C171.756 11.0193 171.176 10.0294 170.312 9.34385C169.368 8.66559 168.237 8.30862 167.082 8.32412C165.926 8.33961 164.805 8.72678 163.879 9.4301C163 10.1376 162.338 11.085 161.97 12.1613C161.589 13.2949 161.398 14.4854 161.405 15.6832C161.399 16.6001 161.513 17.5138 161.744 18.4001C161.946 19.224 162.275 20.01 162.72 20.7288C163.16 21.4447 163.773 22.0337 164.501 22.4395C165.311 22.8735 166.216 23.0911 167.131 23.072C169.958 23.072 171.655 21.3901 172.079 18.0407H175.487Z" fill="#8A8A8A"/>
<path d="M177.989 15.6544C178.328 12.4344 180.364 10.8244 184.139 10.8244C185.624 10.7402 187.1 11.1053 188.381 11.8737C188.898 12.2318 189.314 12.7216 189.587 13.2942C189.86 13.8668 189.98 14.5022 189.936 15.1369V22.3244C189.914 22.6114 189.968 22.8991 190.092 23.1581C190.165 23.2381 190.255 23.2993 190.356 23.3368C190.457 23.3743 190.565 23.387 190.671 23.3737C190.906 23.3937 191.143 23.3937 191.378 23.3737V25.5875C190.723 25.7684 190.049 25.8697 189.371 25.8894C188.042 25.8894 187.278 25.3287 187.08 24.1787C186.406 24.7797 185.622 25.239 184.773 25.5302C183.923 25.8213 183.026 25.9385 182.132 25.875C180.88 25.9499 179.647 25.5389 178.682 24.725C178.252 24.3384 177.914 23.8586 177.691 23.3212C177.469 22.7838 177.367 22.2025 177.395 21.62C177.39 21.2366 177.437 20.8543 177.537 20.4844C177.608 20.172 177.712 19.8683 177.848 19.5787C177.98 19.2988 178.174 19.053 178.413 18.86L179.064 18.2994C179.321 18.1132 179.608 17.9722 179.912 17.8825L180.788 17.595C181.113 17.4996 181.444 17.4276 181.778 17.3794L182.711 17.2356L183.687 17.1062C184.442 17.0201 185.192 16.8954 185.935 16.7325C186.25 16.6822 186.539 16.5252 186.755 16.2869C186.923 15.9704 186.992 15.6093 186.953 15.2519C186.953 13.8144 185.977 13.0956 184.125 13.0956C183.337 13.0313 182.55 13.2389 181.891 13.685C181.351 14.1923 181.027 14.8935 180.986 15.64L177.989 15.6544ZM186.925 18.3712C186.662 18.5111 186.388 18.6265 186.105 18.7162C185.86 18.7977 185.609 18.8602 185.355 18.9031L184.45 19.0325L183.659 19.1475L182.754 19.2912C182.542 19.2912 182.273 19.4206 181.948 19.5356C181.679 19.6189 181.429 19.7557 181.213 19.9381C181.027 20.1174 180.878 20.3324 180.774 20.5706C180.638 20.8673 180.57 21.1919 180.576 21.5194C180.56 21.8171 180.612 22.1147 180.727 22.3889C180.842 22.6631 181.018 22.9067 181.241 23.1006C181.78 23.501 182.441 23.6945 183.107 23.6469C183.685 23.6906 184.265 23.6138 184.812 23.4209C185.359 23.2281 185.861 22.9234 186.288 22.5256C186.797 21.8115 187.024 20.9292 186.925 20.0531V18.3712Z" fill="#8A8A8A"/>
<path d="M196.44 5.83618V25.5299H193.372V5.83618H196.44Z" fill="#8A8A8A"/>
<path d="M203 5.83618V25.5299H199.918V5.83618H203Z" fill="#8A8A8A"/>
<path d="M54.433 34.0974H56.8224C57.2683 34.0824 57.7078 34.2079 58.0808 34.4568C58.2492 34.5738 58.3848 34.7335 58.4741 34.92C58.5633 35.1065 58.6032 35.3135 58.5897 35.5205C58.5912 35.8186 58.4913 36.108 58.307 36.3399C58.1293 36.5605 57.8863 36.7168 57.6142 36.7855C57.9331 36.8395 58.2287 36.9898 58.4625 37.2168C58.5794 37.3432 58.6698 37.4926 58.7281 37.6557C58.7864 37.8188 58.8115 37.9922 58.8018 38.1655C58.8141 38.3959 58.7717 38.6258 58.6782 38.836C58.5847 39.0461 58.4428 39.2303 58.2646 39.373C57.8599 39.6854 57.3577 39.8386 56.8507 39.8043H54.433V34.0974ZM54.9562 34.5718V36.6274H56.7235C57.0555 36.6373 57.3836 36.5527 57.6708 36.383C57.7995 36.2994 57.9032 36.1815 57.9705 36.042C58.0378 35.9026 58.0662 35.7471 58.0525 35.5924C58.0551 35.4087 58.0164 35.2268 57.9394 35.0605C57.8573 34.9199 57.7336 34.8092 57.5859 34.7443C57.4369 34.6768 57.2801 34.6286 57.1194 34.6005H56.5821L54.9562 34.5718ZM54.9562 37.0586V39.3299H56.6245C56.8221 39.3463 57.0207 39.3463 57.2183 39.3299C57.3943 39.3091 57.566 39.2606 57.7273 39.1861C57.8926 39.1108 58.0309 38.9853 58.1232 38.8268C58.2225 38.642 58.2713 38.4335 58.2646 38.223C58.2731 38.0169 58.2241 37.8126 58.1232 37.6336C58.025 37.4782 57.8817 37.3577 57.7132 37.2886C57.5398 37.2207 57.3597 37.1725 57.1759 37.1449C56.983 37.129 56.7891 37.129 56.5962 37.1449L54.9562 37.0586Z" fill="#8A8A8A"/>
<path d="M61.6437 35.6213V36.1388H61.5164C61.2205 36.1323 60.9312 36.2287 60.6964 36.412C60.4657 36.5851 60.3009 36.8339 60.2298 37.1163C60.1522 37.4505 60.119 37.7938 60.1309 38.137V39.8188H59.6501V35.6932H60.1026V36.6707C60.2369 36.3555 60.4457 36.079 60.7105 35.8657C60.9927 35.6965 61.3162 35.6118 61.6437 35.6213Z" fill="#8A8A8A"/>
<path d="M62.5627 34.083V34.9024H62.0679V34.083H62.5627ZM62.5627 35.693V39.8043H62.0679V35.693H62.5627Z" fill="#8A8A8A"/>
<path d="M63.9765 35.6932V36.4695C64.1128 36.1953 64.3176 35.9623 64.5703 35.7939C64.8637 35.6297 65.1977 35.5558 65.5316 35.5814C65.8655 35.6069 66.1849 35.7307 66.4507 35.9376C66.5837 36.0811 66.6862 36.2509 66.7518 36.4363C66.8175 36.6218 66.845 36.819 66.8325 37.0157V39.8907H66.3094V37.1595C66.3094 36.3976 65.97 36.0095 65.2773 36.0095C65.1045 36.0046 64.9328 36.038 64.774 36.1075C64.6153 36.1771 64.4734 36.281 64.3583 36.412C64.1039 36.7428 63.978 37.1573 64.0048 37.5764V39.8045H63.5099V35.6932H63.9765Z" fill="#8A8A8A"/>
<path d="M71.173 35.6932V39.5745C71.2085 39.8245 71.1862 40.0795 71.1078 40.3192C71.0295 40.5589 70.8972 40.7768 70.7215 40.9554C70.5458 41.134 70.3315 41.2685 70.0958 41.3482C69.86 41.4279 69.6092 41.4506 69.3633 41.4145C68.9472 41.4364 68.5354 41.3204 68.1898 41.0838C68.046 40.9812 67.9277 40.8459 67.8442 40.6887C67.7608 40.5315 67.7145 40.3568 67.7091 40.1782H68.2039C68.2888 40.7388 68.6846 41.0263 69.3774 41.0263C69.5651 41.0464 69.7548 41.0218 69.9314 40.9544C70.1081 40.887 70.267 40.7788 70.3954 40.6382C70.6223 40.3177 70.7277 39.9246 70.6923 39.5313V38.8126C70.5819 39.0967 70.3853 39.3377 70.131 39.5005C69.8768 39.6633 69.5782 39.7396 69.2784 39.7182C69.0379 39.7269 68.7984 39.6826 68.5763 39.5883C68.3542 39.494 68.1549 39.352 67.9918 39.172C67.6771 38.7623 67.5122 38.2541 67.5253 37.7345C67.4953 37.1749 67.6662 36.6232 68.006 36.182C68.1666 35.9932 68.3669 35.8436 68.5921 35.7441C68.8172 35.6446 69.0614 35.5977 69.3067 35.607C69.6048 35.5845 69.9022 35.6587 70.1562 35.8188C70.4102 35.9789 70.6078 36.2168 70.7206 36.4982V35.722L71.173 35.6932ZM70.3388 36.4407C70.2183 36.2992 70.0681 36.187 69.8993 36.1123C69.7304 36.0377 69.5473 36.0025 69.3633 36.0095C69.1799 36.0021 68.9974 36.0386 68.8304 36.116C68.6635 36.1934 68.5167 36.3096 68.4019 36.4551C68.147 36.8077 68.0219 37.2401 68.0484 37.677C68.0262 38.1044 68.1511 38.5263 68.4019 38.8701C68.5129 39.0163 68.657 39.1331 68.8219 39.2106C68.9868 39.2882 69.1676 39.3242 69.3491 39.3157C69.5376 39.3203 69.7246 39.2812 69.8961 39.2016C70.0675 39.1219 70.2189 39.0036 70.3388 38.8557C70.5937 38.4976 70.7186 38.0607 70.6923 37.6195C70.716 37.1963 70.5907 36.7784 70.3388 36.4407Z" fill="#8A8A8A"/>
<path d="M77.4363 35.6931L75.8528 40.0056C75.7335 40.399 75.5572 40.772 75.3297 41.1125C75.2524 41.2151 75.1511 41.2964 75.0351 41.3491C74.919 41.4018 74.7919 41.4243 74.6652 41.4144H74.2269V40.9831H74.5803C74.6685 40.9855 74.7559 40.9658 74.8349 40.9256C74.9138 40.8855 74.9817 40.8263 75.0328 40.7531C75.177 40.5077 75.2955 40.2475 75.3862 39.9769V39.8906L73.7603 35.8225H74.2976L75.4004 38.6975C75.4004 38.8125 75.5135 39.0569 75.6407 39.4306C75.7821 38.985 75.8528 38.7119 75.8811 38.6544L76.8849 35.88L77.4363 35.6931Z" fill="#8A8A8A"/>
<path d="M79.6561 35.5637C79.9197 35.5522 80.1826 35.5989 80.4266 35.7006C80.6707 35.8024 80.8902 35.9568 81.0699 36.1531C81.4272 36.6086 81.6083 37.1813 81.5789 37.7631C81.6093 38.3363 81.4277 38.9003 81.0699 39.3444C80.8847 39.5339 80.6644 39.6842 80.4217 39.7869C80.1791 39.8895 79.9189 39.9423 79.6561 39.9423C79.3933 39.9423 79.1331 39.8895 78.8904 39.7869C78.6478 39.6842 78.4275 39.5339 78.2422 39.3444C77.8743 38.9053 77.687 38.339 77.7191 37.7631C77.6891 37.1832 77.876 36.6131 78.2422 36.1675C78.4207 35.9685 78.6396 35.8115 78.8837 35.7072C79.1279 35.6029 79.3914 35.554 79.6561 35.5637ZM80.6882 36.4694C80.5625 36.3163 80.4043 36.1941 80.2256 36.112C80.0469 36.0298 79.8522 35.9898 79.6561 35.995C79.4596 35.9865 79.2638 36.025 79.0846 36.1074C78.9053 36.1898 78.7476 36.3138 78.624 36.4694C78.3517 36.8364 78.2164 37.2898 78.2422 37.7487C78.2189 38.2074 78.3539 38.66 78.624 39.0281C78.7498 39.1848 78.9099 39.3094 79.0916 39.3918C79.2733 39.4742 79.4715 39.5121 79.6702 39.5025C79.8646 39.5098 80.0579 39.4707 80.2347 39.3883C80.4115 39.3059 80.5668 39.1826 80.6882 39.0281C80.9605 38.6611 81.0957 38.2077 81.0699 37.7487C81.0933 37.2901 80.9583 36.8375 80.6882 36.4694Z" fill="#8A8A8A"/>
<path d="M85.5801 35.6931V39.8044H85.1135V39.0425C84.9887 39.3137 84.788 39.5416 84.5366 39.6975C84.2851 39.8535 83.994 39.9306 83.6997 39.9194C83.5127 39.9313 83.3253 39.9029 83.1499 39.836C82.9744 39.7691 82.8149 39.6652 82.6817 39.5312C82.5451 39.3844 82.4405 39.2099 82.3748 39.0192C82.309 38.8285 82.2835 38.6258 82.3 38.4244V35.6931H82.7948V38.2087C82.7731 38.543 82.8574 38.8755 83.0352 39.1575C83.1315 39.2721 83.2542 39.361 83.3922 39.4161C83.5303 39.4713 83.6796 39.491 83.8269 39.4737C84.0027 39.4805 84.1775 39.445 84.3372 39.37C84.4969 39.2951 84.637 39.1829 84.7459 39.0425C84.9792 38.7343 85.0992 38.353 85.0852 37.9644V35.6931H85.5801Z" fill="#8A8A8A"/>
<path d="M88.6057 35.6213V36.1388H88.4644C88.1731 36.1345 87.8889 36.2308 87.6585 36.412C87.4242 36.5844 87.2546 36.8328 87.1778 37.1163C87.1072 37.4517 87.074 37.7941 87.0788 38.137V39.8188H86.5981V35.6932H87.0647V36.6707C87.1998 36.3801 87.4039 36.1282 87.6585 35.9376C87.9378 35.7419 88.2667 35.6321 88.6057 35.6213Z" fill="#8A8A8A"/>
<path d="M96.0001 37.6193C95.9771 38.2552 95.7137 38.8576 95.2649 39.3011C94.7627 39.7324 94.1178 39.953 93.4613 39.9183C92.8048 39.8836 92.1859 39.5961 91.7303 39.1143C91.2414 38.5094 90.9941 37.7397 91.0375 36.958C91.0105 36.1874 91.2563 35.4325 91.7303 34.8305C91.9614 34.5467 92.2539 34.3211 92.5851 34.1715C92.9162 34.0219 93.277 33.9522 93.639 33.968C94.1879 33.9649 94.7232 34.1413 95.166 34.4711C95.3803 34.625 95.5595 34.8241 95.6913 35.0548C95.823 35.2856 95.9043 35.5425 95.9294 35.808H95.3922C95.3265 35.4123 95.1139 35.0572 94.7984 34.8161C94.4616 34.5572 94.0468 34.4251 93.6249 34.4424C93.3398 34.4333 93.0565 34.4908 92.7967 34.6104C92.5369 34.73 92.3075 34.9086 92.1262 35.1324C91.7588 35.6679 91.5619 36.3051 91.5619 36.958C91.5619 37.6109 91.7588 38.2481 92.1262 38.7836C92.2986 38.9949 92.5146 39.165 92.759 39.2818C93.0034 39.3986 93.27 39.4592 93.54 39.4593C93.7771 39.4707 94.0139 39.4319 94.2354 39.3453C94.4569 39.2587 94.6582 39.1262 94.8266 38.9561C95.1631 38.5901 95.3675 38.1188 95.4063 37.6193H96.0001Z" fill="#8A8A8A"/>
<path d="M98.4602 35.5638C98.7243 35.5482 98.9883 35.5931 99.233 35.6951C99.4777 35.7971 99.6968 35.9536 99.8741 36.1532C100.231 36.6087 100.412 37.1813 100.383 37.7632C100.413 38.3364 100.232 38.9004 99.8741 39.3444C99.6937 39.539 99.4737 39.6912 99.2295 39.7905C98.9854 39.8898 98.7228 39.9338 98.4602 39.9194C98.1963 39.934 97.9325 39.8886 97.688 39.7867C97.4435 39.6848 97.2243 39.5288 97.0464 39.3301C96.6785 38.891 96.4911 38.3247 96.5233 37.7488C96.4932 37.1689 96.6801 36.5988 97.0464 36.1532C97.2243 35.9545 97.4435 35.7985 97.688 35.6965C97.9325 35.5946 98.1963 35.5493 98.4602 35.5638ZM99.4782 36.4694C99.3546 36.3138 99.1969 36.1899 99.0176 36.1075C98.8384 36.0251 98.6426 35.9866 98.4461 35.9951C98.25 35.9899 98.0553 36.0299 97.8766 36.112C97.6979 36.1942 97.5397 36.3164 97.414 36.4694C97.1417 36.8365 97.0064 37.2898 97.0322 37.7488C97.0089 38.2075 97.1439 38.66 97.414 39.0282C97.5405 39.184 97.7008 39.308 97.8823 39.3903C98.0638 39.4726 98.2616 39.511 98.4602 39.5026C98.6568 39.511 98.8525 39.4725 99.0317 39.3901C99.211 39.3077 99.3687 39.1838 99.4923 39.0282C99.7532 38.6561 99.8828 38.2052 99.8599 37.7488C99.8833 37.2901 99.7483 36.8376 99.4782 36.4694Z" fill="#8A8A8A"/>
<path d="M101.585 35.6932V36.4119C101.724 36.1604 101.917 35.9442 102.15 35.7794C102.385 35.6374 102.655 35.5675 102.928 35.5782C103.187 35.5709 103.443 35.6409 103.663 35.7794C103.865 35.9223 104.015 36.1297 104.087 36.3688C104.211 36.1182 104.404 35.9099 104.643 35.7694C104.881 35.6289 105.155 35.5624 105.431 35.5782C105.764 35.5701 106.089 35.6821 106.35 35.8944C106.478 36.0167 106.578 36.1668 106.641 36.3335C106.705 36.5002 106.731 36.6793 106.717 36.8576V39.8044H106.222V36.9294C106.243 36.7988 106.234 36.6649 106.195 36.5386C106.156 36.4123 106.088 36.297 105.998 36.202C105.907 36.107 105.796 36.0349 105.673 35.9915C105.55 35.948 105.418 35.9345 105.289 35.9519C105.136 35.9417 104.982 35.9675 104.84 36.0273C104.697 36.0871 104.571 36.1794 104.469 36.2969C104.26 36.5493 104.154 36.8733 104.172 37.2026V39.7326H103.677V37.0444C103.677 36.3688 103.38 36.0238 102.787 36.0238C102.619 36.0123 102.452 36.0429 102.299 36.1132C102.146 36.1834 102.012 36.291 101.91 36.4263C101.699 36.7274 101.594 37.0921 101.613 37.4613V39.8044H101.118V35.6932H101.585Z" fill="#8A8A8A"/>
<path d="M108.131 35.6931V36.4119C108.275 36.1594 108.473 35.9432 108.711 35.7794C108.941 35.64 109.206 35.5702 109.474 35.5781C109.737 35.573 109.997 35.6427 110.223 35.7794C110.422 35.9229 110.566 36.1307 110.633 36.3688C110.762 36.1061 110.966 35.8896 111.219 35.7483C111.471 35.6069 111.76 35.5476 112.047 35.5781C112.381 35.5701 112.706 35.6821 112.966 35.8944C113.097 36.0153 113.2 36.1647 113.266 36.3315C113.332 36.4983 113.36 36.6781 113.348 36.8575V39.8044H112.853V36.9294C112.874 36.7987 112.865 36.6649 112.826 36.5385C112.787 36.4122 112.719 36.2969 112.629 36.2019C112.538 36.1069 112.427 36.0348 112.303 35.9914C112.18 35.948 112.049 35.9345 111.92 35.9519C111.764 35.9416 111.608 35.9673 111.464 36.027C111.32 36.0868 111.19 36.179 111.086 36.2969C110.877 36.5493 110.771 36.8732 110.789 37.2025V39.7325H110.28V37.0444C110.28 36.3688 109.983 36.0238 109.389 36.0238C109.22 36.0111 109.05 36.0412 108.894 36.1114C108.739 36.1816 108.603 36.2898 108.499 36.4263C108.288 36.7273 108.183 37.0921 108.202 37.4613V39.8044H107.707V35.6931H108.131Z" fill="#8A8A8A"/>
<path d="M117.476 35.6931V39.8044H117.024V39.0425C116.898 39.3126 116.697 39.5394 116.446 39.6951C116.194 39.8508 115.904 39.9288 115.61 39.9194C115.412 39.9361 115.213 39.9102 115.025 39.8433C114.838 39.7765 114.666 39.6701 114.522 39.5312C114.387 39.3832 114.285 39.2082 114.222 39.0175C114.159 38.8268 114.136 38.6247 114.154 38.4244V35.6931H114.649V38.2087C114.623 38.5414 114.702 38.8738 114.875 39.1575C114.972 39.2712 115.095 39.3593 115.233 39.4144C115.371 39.4694 115.519 39.4898 115.667 39.4737C115.845 39.4816 116.022 39.4467 116.184 39.3718C116.346 39.2968 116.489 39.184 116.6 39.0425C116.822 38.7293 116.936 38.3503 116.925 37.9644V35.6931H117.476Z" fill="#8A8A8A"/>
<path d="M118.904 35.6932V36.4694C119.031 36.1934 119.232 35.9592 119.484 35.7938C119.741 35.6417 120.035 35.5669 120.332 35.5782C120.702 35.5615 121.065 35.6844 121.35 35.9232C121.483 36.0667 121.586 36.2364 121.651 36.4219C121.717 36.6074 121.745 36.8046 121.732 37.0013V39.8763H121.237V37.1594C121.237 36.3975 120.898 36.0094 120.205 36.0094C120.03 36.0043 119.856 36.0376 119.695 36.1071C119.534 36.1765 119.39 36.2805 119.272 36.4119C119.023 36.7448 118.902 37.159 118.933 37.5763V39.8044H118.438V35.6932H118.904Z" fill="#8A8A8A"/>
<path d="M123.16 34.083V34.9024H122.665V34.083H123.16ZM123.16 35.693V39.8043H122.665V35.693H123.16Z" fill="#8A8A8A"/>
<path d="M127.501 38.3237C127.449 38.7561 127.26 39.1596 126.963 39.4737C126.808 39.6252 126.624 39.7429 126.422 39.8195C126.22 39.8962 126.005 39.9301 125.79 39.9194C125.525 39.9381 125.26 39.8947 125.015 39.7925C124.77 39.6903 124.551 39.532 124.376 39.33C124.021 38.8955 123.84 38.3415 123.867 37.7775C123.851 37.1903 124.047 36.6175 124.418 36.1675C124.594 35.9645 124.812 35.8047 125.057 35.7001C125.302 35.5955 125.567 35.5489 125.832 35.5637C126.241 35.548 126.642 35.6805 126.963 35.9375C127.264 36.2058 127.451 36.5817 127.486 36.9869H126.963C126.958 36.8421 126.924 36.6999 126.864 36.5684C126.804 36.437 126.719 36.3191 126.614 36.2214C126.509 36.1238 126.385 36.0484 126.251 35.9996C126.117 35.9509 125.975 35.9298 125.832 35.9375C125.64 35.929 125.448 35.9676 125.273 36.0502C125.099 36.1327 124.946 36.2568 124.828 36.4119C124.556 36.7844 124.421 37.2422 124.447 37.7056C124.426 38.1617 124.555 38.6119 124.814 38.985C124.928 39.1378 125.075 39.2607 125.245 39.3432C125.415 39.4258 125.602 39.4656 125.79 39.4594C126.096 39.4718 126.395 39.3637 126.624 39.1575C126.847 38.9171 126.986 38.6091 127.02 38.2806L127.501 38.3237Z" fill="#8A8A8A"/>
<path d="M131.742 39.3874V39.7755C131.611 39.7975 131.477 39.7975 131.346 39.7755C131.264 39.788 131.18 39.7755 131.104 39.7398C131.029 39.704 130.966 39.6464 130.922 39.5743C130.846 39.403 130.812 39.2155 130.823 39.028C130.665 39.2921 130.44 39.5078 130.171 39.652C129.902 39.7963 129.6 39.8638 129.296 39.8474C128.946 39.867 128.601 39.7601 128.321 39.5455C128.206 39.4381 128.117 39.3065 128.058 39.1599C127.999 39.0133 127.973 38.8554 127.981 38.6974C127.981 37.9643 128.476 37.533 129.48 37.4324H129.692H130.074H130.229H130.357H130.484H130.569H130.653C130.707 37.3819 130.748 37.3189 130.773 37.2488C130.798 37.1787 130.805 37.1036 130.795 37.0299C130.809 36.9034 130.792 36.7753 130.745 36.6573C130.698 36.5393 130.623 36.4351 130.526 36.3543C130.297 36.1996 130.023 36.1287 129.749 36.153C129.466 36.1325 129.186 36.2139 128.957 36.383C128.766 36.5787 128.655 36.8406 128.646 37.1161H128.165C128.152 36.8941 128.19 36.6721 128.276 36.4676C128.362 36.263 128.493 36.0816 128.66 35.9374C128.995 35.6768 129.412 35.549 129.833 35.578C130.219 35.5581 130.6 35.6639 130.922 35.8799C131.052 35.9832 131.156 36.1167 131.225 36.2693C131.294 36.4219 131.326 36.5891 131.318 36.7568V39.2293C131.308 39.2718 131.308 39.3161 131.318 39.3586C131.382 39.3795 131.452 39.3795 131.516 39.3586L131.742 39.3874ZM130.795 37.5618C130.73 37.6221 130.653 37.6664 130.569 37.6911L130.272 37.763L129.819 37.8349H129.692C129.554 37.8469 129.416 37.8709 129.282 37.9068L128.914 38.0361C128.785 38.085 128.676 38.176 128.603 38.2949C128.509 38.4483 128.471 38.631 128.497 38.8101C128.523 38.9892 128.611 39.1531 128.745 39.2724C128.943 39.4134 129.182 39.4841 129.423 39.4736C129.78 39.4878 130.128 39.3646 130.399 39.1286C130.53 39.0164 130.634 38.8751 130.702 38.7155C130.771 38.556 130.803 38.3826 130.795 38.2086V37.5618Z" fill="#8A8A8A"/>
<path d="M133.891 35.6931V36.0956H133.057V38.9706C133.057 38.9706 133.057 39.0856 133.057 39.1719C133.07 39.2068 133.09 39.2382 133.117 39.2632C133.144 39.2883 133.177 39.3062 133.213 39.3156C133.311 39.334 133.411 39.334 133.509 39.3156C133.618 39.3271 133.727 39.3271 133.835 39.3156V39.7612H133.396C132.916 39.7612 132.633 39.6031 132.562 39.2869C132.535 38.9856 132.535 38.6825 132.562 38.3813V36.0956H131.855V35.6931H132.562V34.5H133.057V35.765L133.891 35.6931Z" fill="#8A8A8A"/>
<path d="M135.107 34.083V34.9024H134.612V34.083H135.107ZM135.107 35.693V39.8043H134.612V35.693H135.107Z" fill="#8A8A8A"/>
<path d="M137.779 35.5638C138.043 35.5482 138.307 35.5931 138.552 35.6951C138.797 35.7971 139.016 35.9536 139.193 36.1532C139.528 36.6153 139.709 37.1745 139.709 37.7488C139.709 38.3231 139.528 38.8823 139.193 39.3444C139.008 39.5339 138.788 39.6843 138.545 39.7869C138.302 39.8896 138.042 39.9424 137.779 39.9424C137.517 39.9424 137.256 39.8896 137.014 39.7869C136.771 39.6843 136.551 39.5339 136.365 39.3444C135.998 38.9054 135.81 38.3391 135.842 37.7632C135.812 37.1832 135.999 36.6132 136.365 36.1676C136.544 35.9686 136.763 35.8115 137.007 35.7073C137.251 35.603 137.515 35.554 137.779 35.5638ZM138.811 36.4694C138.686 36.3164 138.528 36.1942 138.349 36.112C138.17 36.0299 137.975 35.9899 137.779 35.9951C137.583 35.9866 137.387 36.0251 137.208 36.1075C137.029 36.1899 136.871 36.3138 136.747 36.4694C136.475 36.8365 136.34 37.2898 136.365 37.7488C136.345 38.2049 136.474 38.6551 136.733 39.0282C136.862 39.1852 137.024 39.3097 137.208 39.392C137.392 39.4743 137.593 39.5122 137.793 39.5026C137.988 39.5099 138.181 39.4708 138.358 39.3884C138.535 39.306 138.69 39.1826 138.811 39.0282C139.084 38.6612 139.219 38.2078 139.193 37.7488C139.217 37.2901 139.081 36.8376 138.811 36.4694Z" fill="#8A8A8A"/>
<path d="M140.89 35.693V36.4693C141.026 36.1951 141.231 35.9621 141.484 35.7936C141.741 35.6415 142.035 35.5667 142.332 35.578C142.701 35.564 143.063 35.6866 143.35 35.923C143.483 36.0665 143.585 36.2363 143.651 36.4217C143.717 36.6072 143.744 36.8044 143.732 37.0011V39.8761H143.237V37.1593C143.237 36.3974 142.883 36.0093 142.205 36.0093C142.03 36.0042 141.856 36.0375 141.695 36.1069C141.534 36.1764 141.389 36.2804 141.271 36.4118C141.022 36.7446 140.901 37.1589 140.932 37.5761V39.8043H140.437V35.693H140.89Z" fill="#8A8A8A"/>
<path d="M148.454 35.6931V36.0956H147.62V38.6975C147.61 38.7979 147.61 38.899 147.62 38.9994C147.61 39.0661 147.61 39.1339 147.62 39.2006C147.632 39.2356 147.653 39.2669 147.68 39.292C147.707 39.317 147.74 39.335 147.775 39.3444C147.873 39.3627 147.974 39.3627 148.072 39.3444C148.18 39.3564 148.289 39.3564 148.397 39.3444V39.79H147.973C147.474 39.79 147.191 39.6319 147.125 39.3156C147.101 39.0142 147.101 38.7114 147.125 38.41V36.0956H146.404V35.6931H147.125V34.5H147.606V35.765L148.454 35.6931Z" fill="#8A8A8A"/>
<path d="M150.9 35.5638C151.164 35.5503 151.427 35.5961 151.671 35.698C151.916 35.7999 152.135 35.9553 152.314 36.1532C152.671 36.6087 152.852 37.1814 152.823 37.7632C152.853 38.3364 152.671 38.9004 152.314 39.3445C152.133 39.539 151.913 39.6912 151.669 39.7905C151.425 39.8898 151.162 39.9338 150.9 39.9195C150.636 39.9301 150.374 39.8829 150.13 39.7812C149.886 39.6796 149.666 39.5257 149.486 39.3301C149.124 38.8875 148.938 38.3237 148.963 37.7488C148.94 37.1699 149.126 36.6023 149.486 36.1532C149.666 35.9576 149.886 35.8038 150.13 35.7021C150.374 35.6004 150.636 35.5532 150.9 35.5638ZM151.918 36.4695C151.785 36.3258 151.626 36.2114 151.448 36.1331C151.271 36.0548 151.079 36.0144 150.886 36.0144C150.692 36.0144 150.501 36.0548 150.323 36.1331C150.146 36.2114 149.986 36.3258 149.854 36.4695C149.581 36.8365 149.446 37.2899 149.472 37.7488C149.448 38.2075 149.583 38.6601 149.854 39.0282C149.98 39.1841 150.14 39.308 150.322 39.3903C150.503 39.4726 150.701 39.5111 150.9 39.5026C151.094 39.5123 151.288 39.4742 151.466 39.3916C151.643 39.3091 151.798 39.1844 151.918 39.0282C152.19 38.6612 152.325 38.2078 152.299 37.7488C152.323 37.2902 152.188 36.8376 151.918 36.4695Z" fill="#8A8A8A"/>
<path d="M157.347 35.6931V36.0956H156.513V38.9706C156.513 38.9706 156.513 39.0856 156.513 39.1719C156.525 39.2068 156.546 39.2382 156.573 39.2632C156.6 39.2883 156.633 39.3062 156.668 39.3156C156.766 39.334 156.867 39.334 156.965 39.3156C157.073 39.3271 157.182 39.3271 157.29 39.3156V39.7612H156.852C156.371 39.7612 156.089 39.6031 156.018 39.2869C155.983 38.986 155.983 38.6821 156.018 38.3813V36.0956H155.311V35.6931H156.018V34.5H156.513V35.765L157.347 35.6931Z" fill="#8A8A8A"/>
<path d="M158.549 34.0976C158.549 35.5351 158.549 36.2538 158.549 36.4694C158.661 36.188 158.859 35.9502 159.113 35.79C159.367 35.6299 159.664 35.5557 159.963 35.5782C160.156 35.5655 160.35 35.5934 160.532 35.6602C160.715 35.727 160.882 35.8312 161.023 35.9663C161.277 36.2747 161.404 36.6716 161.376 37.0732V39.8044H160.882V37.1451C160.882 36.3832 160.542 36.0094 159.849 36.0094C159.665 35.9932 159.48 36.0257 159.311 36.1038C159.143 36.1819 158.997 36.3029 158.888 36.4551C158.664 36.8046 158.555 37.2173 158.577 37.6338V39.8044H158.082V34.0544L158.549 34.0976Z" fill="#8A8A8A"/>
<path d="M165.646 38.4387C165.586 38.8609 165.38 39.2478 165.067 39.5312C164.749 39.8091 164.34 39.9531 163.921 39.9337C163.657 39.9525 163.392 39.9091 163.147 39.8069C162.901 39.7047 162.683 39.5464 162.507 39.3443C162.153 38.9098 161.971 38.3558 161.998 37.7918C161.98 37.2136 162.166 36.6478 162.522 36.1962C162.682 35.9966 162.885 35.837 163.115 35.7298C163.346 35.6226 163.597 35.5707 163.851 35.5781C164.103 35.5611 164.356 35.6087 164.586 35.7167C164.815 35.8247 165.015 35.9896 165.165 36.1962C165.486 36.6357 165.651 37.173 165.632 37.7199V37.8637H162.592C162.577 38.2836 162.696 38.6972 162.932 39.0424C163.085 39.2421 163.292 39.3917 163.528 39.4728C163.764 39.5539 164.018 39.5629 164.258 39.4986C164.499 39.4343 164.716 39.2997 164.882 39.1113C165.049 38.9229 165.157 38.689 165.194 38.4387H165.646ZM165.194 37.4612C165.19 37.0683 165.055 36.6883 164.812 36.3831C164.695 36.2554 164.552 36.1547 164.394 36.0878C164.235 36.0208 164.065 35.9892 163.893 35.995C163.717 35.9825 163.541 36.0124 163.379 36.0824C163.217 36.1523 163.073 36.2603 162.96 36.3974C162.734 36.7082 162.597 37.0763 162.564 37.4612H165.194Z" fill="#8A8A8A"/>
<path d="M173.055 34.0975V39.8475H172.489L169.859 35.9375C169.586 35.5459 169.335 35.1379 169.11 34.7156C169.11 35.0894 169.11 35.5494 169.11 36.0812V39.7612H168.587V34.0112H169.181L171.796 37.8781C172.061 38.263 172.306 38.6612 172.532 39.0712C172.532 38.2375 172.532 37.7583 172.532 37.6337V34.0975H173.055Z" fill="#8A8A8A"/>
<path d="M177.452 38.4387C177.391 38.8609 177.186 39.2478 176.872 39.5312C176.555 39.8091 176.145 39.9531 175.727 39.9337C175.463 39.9525 175.197 39.9091 174.952 39.8069C174.707 39.7047 174.488 39.5464 174.313 39.3443C173.958 38.9098 173.777 38.3558 173.804 37.7918C173.786 37.2136 173.972 36.6478 174.327 36.1962C174.487 35.9966 174.691 35.837 174.921 35.7298C175.151 35.6226 175.403 35.5707 175.656 35.5781C175.909 35.5611 176.161 35.6087 176.391 35.7167C176.621 35.8247 176.82 35.9896 176.971 36.1962C177.292 36.6357 177.456 37.173 177.438 37.7199V37.8637H174.313C174.298 38.2836 174.417 38.6972 174.652 39.0424C174.805 39.2421 175.013 39.3917 175.249 39.4728C175.484 39.5539 175.738 39.5629 175.979 39.4986C176.22 39.4343 176.437 39.2997 176.603 39.1113C176.769 38.9229 176.878 38.689 176.915 38.4387H177.452ZM176.999 37.4612C176.996 37.0683 176.861 36.6883 176.618 36.3831C176.501 36.2554 176.358 36.1547 176.2 36.0878C176.041 36.0208 175.87 35.9892 175.699 35.995C175.523 35.9825 175.347 36.0124 175.185 36.0824C175.022 36.1523 174.879 36.2603 174.766 36.3974C174.54 36.7082 174.403 37.0763 174.37 37.4612H176.999Z" fill="#8A8A8A"/>
<path d="M181.312 35.6931L179.898 37.605L181.495 39.8044H180.859L179.785 38.295V38.2087V38.1081V37.9787C179.723 38.0859 179.652 38.187 179.573 38.2806L178.512 39.8044H177.918L179.488 37.6337L178.074 35.6931H178.71L179.587 36.8862L179.714 37.0731L179.827 37.2744L180.096 36.8862L180.986 35.6931H181.312Z" fill="#8A8A8A"/>
<path d="M183.56 35.6931V36.0956H182.725V38.6975C182.725 38.8413 182.725 38.9419 182.725 38.9994C182.718 39.0662 182.718 39.1338 182.725 39.2006C182.734 39.2352 182.752 39.2667 182.777 39.292C182.802 39.3172 182.833 39.3353 182.867 39.3444C182.97 39.3613 183.075 39.3613 183.178 39.3444C183.281 39.356 183.386 39.356 183.489 39.3444V39.79H183.065C182.565 39.79 182.282 39.6319 182.216 39.3156C182.192 39.0142 182.192 38.7114 182.216 38.41V36.0956H181.495V35.6931H182.216V34.5H182.697V35.765L183.56 35.6931Z" fill="#8A8A8A"/>
<path d="M190.247 39.3301V39.8044H186.628V34.0544H187.165V39.2869L190.247 39.3301Z" fill="#8A8A8A"/>
<path d="M194.05 38.4387C193.99 38.8609 193.784 39.2478 193.471 39.5312C193.153 39.8091 192.744 39.9531 192.325 39.9337C192.073 39.9435 191.821 39.8957 191.588 39.7937C191.356 39.6918 191.149 39.5382 190.982 39.3443C190.628 38.9098 190.446 38.3558 190.473 37.7918C190.45 37.2152 190.631 36.6491 190.982 36.1962C191.142 35.9965 191.346 35.837 191.576 35.7298C191.806 35.6226 192.058 35.5707 192.311 35.5781C192.566 35.5625 192.82 35.6107 193.052 35.7185C193.283 35.8263 193.486 35.9903 193.64 36.1962C193.951 36.64 194.11 37.1753 194.093 37.7199V37.8637H190.968C190.95 38.2861 191.075 38.702 191.322 39.0424C191.437 39.2051 191.59 39.3353 191.768 39.4209C191.946 39.5064 192.143 39.5443 192.34 39.5312C192.644 39.5472 192.943 39.4421 193.172 39.2382C193.402 39.0343 193.544 38.7476 193.57 38.4387H194.05ZM193.598 37.4612C193.594 37.0683 193.46 36.6883 193.216 36.383C193.104 36.2414 192.962 36.1277 192.8 36.0505C192.639 35.9732 192.462 35.9346 192.283 35.9374C192.107 35.9249 191.931 35.9549 191.769 36.0249C191.607 36.0948 191.463 36.2028 191.35 36.3399C191.124 36.6507 190.987 37.0188 190.954 37.4037L193.598 37.4612Z" fill="#8A8A8A"/>
<path d="M197.938 35.6931L196.525 39.8044H195.987L194.432 35.6931H194.955L195.903 38.1944C195.903 38.3956 196.1 38.7694 196.27 39.3012C196.426 38.7837 196.553 38.41 196.638 38.1512L197.514 35.6931H197.938Z" fill="#8A8A8A"/>
<path d="M201.784 38.4387C201.718 38.859 201.514 39.2441 201.204 39.5312C200.881 39.8075 200.467 39.951 200.045 39.9337C199.781 39.9524 199.516 39.9091 199.27 39.8068C199.025 39.7046 198.807 39.5464 198.631 39.3443C198.277 38.9098 198.095 38.3558 198.122 37.7918C198.099 37.2152 198.28 36.6491 198.631 36.1962C198.802 35.9862 199.019 35.8206 199.265 35.7131C199.51 35.6056 199.778 35.5593 200.045 35.578C200.297 35.5649 200.549 35.6143 200.778 35.7219C201.007 35.8296 201.207 35.9924 201.36 36.1962C201.677 36.637 201.836 37.1745 201.812 37.7199V37.8637H198.702C198.687 38.2836 198.806 38.6972 199.041 39.0424C199.156 39.2051 199.31 39.3353 199.488 39.4208C199.666 39.5064 199.863 39.5443 200.059 39.5312C200.365 39.5474 200.665 39.4427 200.897 39.2392C201.129 39.0356 201.275 38.7488 201.303 38.4387H201.784ZM201.318 37.4612C201.321 37.067 201.185 36.6846 200.936 36.383C200.822 36.255 200.682 36.1538 200.526 36.0867C200.369 36.0197 200.201 35.9883 200.031 35.9949C199.855 35.9824 199.679 36.0124 199.517 36.0823C199.355 36.1523 199.211 36.2603 199.098 36.3974C198.866 36.7047 198.728 37.0747 198.702 37.4612H201.318Z" fill="#8A8A8A"/>
<path d="M203 34.0974V39.8474H202.505V34.0974H203Z" fill="#8A8A8A"/>
<path d="M34.2151 0H11.028C4.9374 0 0 5.02001 0 11.2125V34.7875C0 40.98 4.9374 46 11.028 46H34.2151C40.3057 46 45.2431 40.98 45.2431 34.7875V11.2125C45.2431 5.02001 40.3057 0 34.2151 0Z" fill="#45A1F0"/>
<path d="M22.2963 9.20005L23.0598 10.5657C23.1004 10.6371 23.129 10.7148 23.1446 10.7957L22.3812 9.35817C22.3679 9.27661 22.3391 9.19847 22.2963 9.12817" fill="#A3A3A3"/>
<path d="M22.3812 9.42993L23.1446 10.8674C23.1511 10.9296 23.1511 10.9922 23.1446 11.0543L22.3812 9.68868C22.3887 9.62663 22.3887 9.56386 22.3812 9.50181" fill="#9E9E9E"/>
<path d="M22.3953 9.61683L23.1587 10.9825C23.1657 11.0301 23.1657 11.0785 23.1587 11.1262L22.3953 9.6887C22.4021 9.64586 22.4021 9.60217 22.3953 9.55933" fill="#999999"/>
<path d="M22.3811 9.74634L23.1446 11.1838C23.1509 11.2219 23.1509 11.2608 23.1446 11.2988L22.367 9.86134C22.367 9.86134 22.367 9.78946 22.367 9.74634" fill="#949494"/>
<path d="M22.3387 9.8613L23.1164 11.2988C23.124 11.3367 23.124 11.3759 23.1164 11.4138L22.3529 9.9763V9.84692" fill="#8F8F8F"/>
<path d="M22.2963 10.0625L23.0598 11.5L22.2963 10.0625Z" fill="#8A8A8A"/>
<path d="M18.3234 14.7488L19.1011 16.1288L16.7541 15.1801L15.9906 13.8145L18.3234 14.7488Z" fill="#808080"/>
<path d="M22.2398 10.0625L23.0174 11.4281L20.0483 15.8413L19.2849 14.4613L22.2398 10.0625Z" fill="#8B8B8B"/>
<path d="M19.2849 14.4612L20.0483 15.8987L19.2849 14.4612Z" fill="#8A8A8A"/>
<path d="M19.2424 14.5188L20.0059 15.9563C19.9308 16.0458 19.8376 16.1178 19.7327 16.1674C19.6278 16.217 19.5136 16.2431 19.3979 16.2438C19.3 16.2643 19.199 16.2643 19.101 16.2438L18.3234 14.8063C18.4214 14.8268 18.5224 14.8268 18.6203 14.8063C18.7384 14.8076 18.8553 14.7826 18.9628 14.7329C19.0703 14.6832 19.1658 14.6101 19.2424 14.5188Z" fill="#858585"/>
<path d="M15.9906 13.8144L16.7541 15.2519C16.6604 15.237 16.565 15.237 16.4713 15.2519C16.3272 15.2542 16.1861 15.2937 16.0613 15.3669C15.287 15.8024 14.5894 16.3659 13.9971 17.0344L13.2336 15.6687C13.8154 14.9555 14.5079 14.3437 15.2837 13.8575C15.4096 13.7888 15.5508 13.7541 15.6937 13.7569C15.7916 13.7363 15.8926 13.7363 15.9906 13.7569" fill="#858585"/>
<path d="M13.2336 15.6687L13.9971 17.0343C13.5935 17.5229 13.2339 18.0473 12.9225 18.6012L12.1591 17.25C12.4635 16.6916 12.8235 16.1666 13.2336 15.6831" fill="#8A8A8A"/>
<path d="M12.1591 17.25L12.9225 18.6156C12.6757 19.0802 12.4585 19.5603 12.2722 20.0531C12.219 20.1655 12.1719 20.2807 12.1308 20.3981L11.3673 18.9606L11.4946 18.6156C11.6847 18.1453 11.9068 17.689 12.1591 17.25Z" fill="#8F8F8F"/>
<path d="M11.3107 18.9463L12.0742 20.3838C11.8761 20.9325 11.7155 21.4945 11.5935 22.0657L10.83 20.6282C10.9473 20.0558 11.108 19.4934 11.3107 18.9463Z" fill="#949494"/>
<path d="M10.8866 20.6282L11.6501 22.0657C11.5453 22.6205 11.4839 23.1829 11.4663 23.7475L10.6887 22.31C10.7053 21.7446 10.7715 21.1817 10.8866 20.6282Z" fill="#999999"/>
<path d="M10.6887 22.3101L11.4663 23.7476C11.4409 24.3889 11.4931 25.031 11.6218 25.6594L10.8442 24.2219C10.7289 23.5916 10.6768 22.9511 10.6887 22.3101Z" fill="#9E9E9E"/>
<path d="M10.8442 24.2219L11.6218 25.6594C11.6218 25.8319 11.6218 25.9757 11.7208 26.0907C11.7382 26.1506 11.7619 26.2084 11.7915 26.2632L11.028 24.8257C10.9914 24.7728 10.9628 24.7147 10.9431 24.6532L10.8442 24.2219Z" fill="#A3A3A3"/>
<path d="M23.7809 16.1863L24.5444 17.5519L24.4878 18.9607L23.7102 17.5807L23.7809 16.1863Z" fill="#9C9C9C"/>
<path d="M23.7102 17.5806L24.4878 18.9606L24.3747 21.4043L23.6112 20.0243L23.7102 17.5806Z" fill="#9C9C9C"/>
<path d="M23.5406 21.4618L24.304 22.8418L19.907 20.0243L19.1435 18.6443L23.5406 21.4618Z" fill="#808080"/>
<path d="M23.6112 20.0244L24.3747 21.4044L24.304 22.8419L23.5405 21.4619L23.6112 20.0244Z" fill="#9C9C9C"/>
<path d="M14.1384 26.4789L14.9019 27.8445C14.9425 27.9159 14.9711 27.9936 14.9867 28.0745L14.2233 26.637C14.21 26.5554 14.1812 26.4773 14.1384 26.407" fill="#A3A3A3"/>
<path d="M14.2374 26.7087L15.0009 28.1462C15.0153 28.2077 15.0153 28.2717 15.0009 28.3331L14.2374 26.8956C14.2444 26.8383 14.2444 26.7804 14.2374 26.7231" fill="#9E9E9E"/>
<path d="M14.2516 26.8813L15.015 28.3188V28.4338L14.2374 26.9963C14.2443 26.9583 14.2443 26.9194 14.2374 26.8813" fill="#999999"/>
<path d="M17.7862 21.9075L18.5497 23.345C18.5497 23.6612 18.6486 23.9918 18.7052 24.3081L17.9417 22.8706C17.9417 22.5543 17.8286 22.2381 17.7862 21.9075Z" fill="#9E9E9E"/>
<path d="M17.9417 22.8707L18.7052 24.3082C18.8265 24.8454 18.9969 25.37 19.2142 25.875C19.2848 26.0498 19.3699 26.2181 19.4687 26.3782L18.6911 24.9407C18.6025 24.7773 18.5223 24.6093 18.4507 24.4375C18.222 23.9071 18.0513 23.3528 17.9417 22.7844" fill="#A3A3A3"/>
<path d="M7.45097 32.7463L8.22858 34.1838C8.09564 34.1776 7.96636 34.1376 7.85269 34.0672C7.73902 33.9969 7.64462 33.8985 7.57821 33.7812L6.8006 32.3438C6.86981 32.4585 6.96489 32.5549 7.07798 32.6248C7.19107 32.6948 7.31892 32.7364 7.45097 32.7463Z" fill="#858585"/>
<path d="M28.7435 22.4825L29.5069 23.8481C29.1953 23.2772 28.7602 22.7857 28.2345 22.4106C27.0793 21.6832 25.7311 21.3368 24.3747 21.4188L23.6112 19.9813C24.9666 19.9103 26.3115 20.256 27.471 20.9731C27.9942 21.3511 28.4287 21.842 28.7435 22.4106" fill="#858585"/>
<path d="M14.2374 26.9963L15.0151 28.3763L14.0961 33.6088L13.3326 32.2432L14.2374 26.9963Z" fill="#989898"/>
<path d="M12.5408 32.9188L13.3043 34.2988L8.2286 34.1263L7.45099 32.7463L12.5408 32.9188Z" fill="#808080"/>
<path d="M13.3326 32.243L14.096 33.6086L13.3184 32.1711" fill="#999999"/>
<path d="M13.3184 32.2717L14.096 33.7092V33.8242L13.3326 32.3867C13.3406 32.3488 13.3406 32.3096 13.3326 32.2717" fill="#949494"/>
<path d="M13.2902 32.3867L14.0537 33.8242V33.9392L13.2761 32.5736C13.2814 32.5306 13.2814 32.4872 13.2761 32.4442" fill="#8F8F8F"/>
<path d="M13.2336 32.5162L14.0112 33.8819L13.9264 34.0112L13.1488 32.5737L13.2336 32.4587" fill="#8A8A8A"/>
<path d="M13.1488 32.6311L13.9264 34.0686C13.8474 34.1571 13.7515 34.2282 13.6446 34.2777C13.5376 34.3271 13.4218 34.3538 13.3043 34.3561L12.5408 32.9186C12.6565 32.9179 12.7707 32.8918 12.8756 32.8422C12.9805 32.7926 13.0737 32.7206 13.1488 32.6311Z" fill="#858585"/>
<path d="M28.9414 20.9014L29.719 22.3389C30.0038 22.8652 30.2088 23.4322 30.327 24.0207L29.5635 22.6551C29.4441 22.0648 29.2342 21.4973 28.9414 20.9732" fill="#A3A3A3"/>
<path d="M29.5635 22.5833L30.327 23.9489V24.1358C30.4346 24.709 30.4867 25.2916 30.4825 25.8751L29.6907 24.5095C29.7236 23.9272 29.6856 23.343 29.5776 22.7701C29.5855 22.7081 29.5855 22.6453 29.5776 22.5833" fill="#9E9E9E"/>
<path d="M29.6907 24.5094L30.4684 25.875C30.4684 26.2392 30.4401 26.5986 30.3835 26.9532L29.6201 25.5157C29.6652 25.1629 29.6888 24.8076 29.6907 24.4519" fill="#999999"/>
<path d="M33.6354 23.6899L34.3988 25.1274C34.2837 25.0749 34.1856 24.9902 34.1161 24.8831L33.3526 23.4456C33.3815 23.5033 33.4213 23.5547 33.4699 23.5966C33.5184 23.6386 33.5747 23.6703 33.6354 23.6899Z" fill="#858585"/>
<path d="M23.7102 29.9144L24.4736 31.3519C23.7396 31.1832 23.0208 30.9524 22.3246 30.6619C21.3443 30.2369 20.477 29.5817 19.7938 28.75C19.5709 28.4947 19.3765 28.2151 19.2141 27.9163L18.4365 26.4788C18.612 26.777 18.8106 27.0606 19.0303 27.3269C19.7197 28.1075 20.5758 28.7173 21.5328 29.1094C22.228 29.4065 22.947 29.6422 23.6819 29.8138" fill="#858585"/>
<path d="M23.8092 27.4563L24.5868 28.8363L24.4737 31.28L23.7102 29.9144L23.8092 27.4563Z" fill="#9C9C9C"/>
<path d="M35.2896 24.3656L36.0672 25.7456L34.3989 25.0699L33.6354 23.6899L35.2896 24.3656Z" fill="#808080"/>
<path d="M35.5723 24.61L36.35 26.0475C36.2846 25.9367 36.1852 25.8509 36.0672 25.8031L35.3461 24.4375C35.4068 24.4571 35.4631 24.4889 35.5116 24.5308C35.5602 24.5728 35.6 24.6241 35.6289 24.6819" fill="#858585"/>
<path d="M28.2769 28.8362L29.0546 30.2162L24.403 32.6743L23.6395 31.3087L28.2769 28.8362Z" fill="#808080"/>
<path d="M27.6973 35.9374L28.4749 37.3749C28.421 37.3329 28.3774 37.2788 28.3476 37.2168L27.57 35.7793L27.6973 35.9374Z" fill="#858585"/>
<path d="M30.3694 38.2663L31.1329 39.632L28.4749 37.2457L27.6973 35.8657L30.3694 38.2663Z" fill="#808080"/>
<path d="M38.5697 19.2769L39.3332 20.7144C39.3408 20.7523 39.3408 20.7914 39.3332 20.8294C39.418 21.1312 39.5311 21.5481 39.6301 22.0512L38.8666 20.6137C38.7856 20.2008 38.6817 19.7929 38.5555 19.3919V19.2769" fill="#A3A3A3"/>
<path d="M38.9232 20.6138L39.6866 22.0513C39.9151 23.1712 40.01 24.3151 39.9694 25.4581L39.2059 24.0206C39.2388 22.8778 39.1439 21.7349 38.9232 20.6138Z" fill="#9E9E9E"/>
<path d="M39.2059 24.0207L39.9694 25.4582C39.9411 26.3901 39.837 27.3181 39.6584 28.2326L38.8807 26.7951C39.0635 25.876 39.1723 24.9434 39.2059 24.0063" fill="#999999"/>
<path d="M38.8808 26.8093L39.6584 28.2468C39.4597 29.1802 39.1951 30.0978 38.8666 30.9925L38.1031 29.555C38.4337 28.6622 38.6938 27.7441 38.8808 26.8093Z" fill="#949494"/>
<path d="M38.1738 29.5549L38.9373 30.9924L38.7252 31.5531C38.4229 32.3152 38.0686 33.0549 37.6648 33.7668L36.9014 32.3293C37.3051 31.6124 37.6594 30.8679 37.9618 30.1012L38.1738 29.5549Z" fill="#8F8F8F"/>
<path d="M36.8306 32.3293L37.5941 33.7668C37.0871 34.6844 36.4953 35.5508 35.8268 36.3543L35.0492 34.9887C35.716 34.1807 36.3121 33.3149 36.8306 32.4012" fill="#8A8A8A"/>
<path d="M35.0492 34.9167L35.8268 36.2824C34.6913 37.6654 33.316 38.825 31.7691 39.7036C31.6866 39.7494 31.5944 39.774 31.5005 39.7755C31.3647 39.7752 31.2338 39.724 31.1329 39.6317L30.3694 38.2661C30.4736 38.351 30.6035 38.3967 30.737 38.3955C30.8253 38.4169 30.9173 38.4169 31.0056 38.3955C32.5408 37.5057 33.9097 36.3475 35.0492 34.9742" fill="#858585"/>
<path d="M17.8427 5.40503C18.033 5.40485 18.2175 5.47079 18.3658 5.5919L22.1125 8.9844C22.2645 9.11358 22.3632 9.29594 22.3894 9.49552C22.4156 9.6951 22.3672 9.8974 22.2539 10.0625L19.2848 14.4613C19.2096 14.569 19.1099 14.6566 18.9942 14.7167C18.8785 14.7768 18.7503 14.8075 18.6203 14.8063C18.5224 14.8268 18.4214 14.8268 18.3234 14.8063L15.9906 13.8719C15.8927 13.8514 15.7916 13.8514 15.6937 13.8719C15.5508 13.8692 15.4096 13.9038 15.2837 13.9725C13.5469 15.0929 12.2167 16.7582 11.4946 18.7163C10.6691 20.6191 10.4756 22.7435 10.9432 24.7682C10.9798 24.8873 11.0419 24.9968 11.125 25.0887C11.2081 25.1807 11.3102 25.2528 11.4239 25.3L13.7567 26.2488C13.9249 26.3106 14.0658 26.4315 14.1539 26.5897C14.2421 26.7478 14.2717 26.9328 14.2374 27.1113L13.3326 32.3582C13.2969 32.546 13.1987 32.7157 13.0546 32.8388C12.9104 32.9618 12.729 33.0306 12.5408 33.0338L7.45096 32.8613C7.29063 32.8534 7.13661 32.7954 7.01004 32.695C6.88347 32.5946 6.79055 32.4569 6.74404 32.3007C5.33912 27.3029 5.69927 21.9629 7.76201 17.2069C9.58469 12.3235 13.011 8.23049 17.461 5.62065C17.5649 5.51252 17.6975 5.43758 17.8427 5.40503Z" fill="#F4F2F2"/>
<path d="M29.6908 25.5731C29.573 24.6864 29.3351 23.8204 28.9839 23C28.6581 22.228 28.1359 21.5581 27.471 21.0593C26.3089 20.3487 24.9659 20.0036 23.6112 20.0675L23.5406 21.505L19.1435 18.63L23.7809 16.1575V17.595C24.5103 17.7637 25.2245 17.9945 25.9158 18.285C26.8561 18.7048 27.6919 19.3335 28.3618 20.125C29.0054 20.9029 29.4347 21.8403 29.606 22.8418C29.7549 23.7442 29.7834 24.6629 29.6908 25.5731Z" fill="#F4F2F2"/>
<path d="M23.6395 31.3088V29.8713C22.9098 29.6975 22.1956 29.4619 21.5046 29.1669C20.5475 28.7748 19.6915 28.165 19.0021 27.3844C18.3607 26.6106 17.9315 25.6783 17.7579 24.6819C17.6256 23.7283 17.6256 22.7605 17.7579 21.8069C17.8355 22.7382 18.045 23.6533 18.38 24.5238C18.7006 25.3028 19.2235 25.9786 19.8928 26.4788C21.0535 27.1917 22.3986 27.5324 23.7526 27.4563L23.8233 26.0188L28.2204 28.8938L23.6395 31.3088Z" fill="#F4F2F2"/>
<path d="M34.4979 18.8743L38.1173 18.9893C38.2299 18.9984 38.3372 19.0417 38.4254 19.1134C38.5136 19.1852 38.5786 19.2821 38.6121 19.3918C39.6074 22.9378 39.3523 26.726 37.8911 30.1011C36.5931 33.5685 34.1621 36.4767 31.0057 38.338C30.9173 38.3594 30.8253 38.3594 30.737 38.338C30.6035 38.3392 30.4736 38.2935 30.3694 38.2086L27.6973 35.9374C27.5934 35.8432 27.5274 35.7135 27.5117 35.5729C27.4961 35.4324 27.5319 35.2909 27.6124 35.1755L29.6908 31.9699C29.7424 31.8929 29.8122 31.8303 29.8936 31.7876C29.9751 31.745 30.0657 31.7236 30.1573 31.7255C30.2274 31.7119 30.2994 31.7119 30.3694 31.7255L32.0236 32.4011H32.2357C32.3341 32.3992 32.4308 32.3747 32.5185 32.3293C33.7521 31.5375 34.6959 30.3557 35.2048 28.9655C35.807 27.6134 35.9464 26.0951 35.6007 24.653C35.541 24.555 35.4517 24.4793 35.3462 24.4374L33.692 23.7618C33.5757 23.715 33.4779 23.6304 33.414 23.5212C33.35 23.4119 33.3235 23.2842 33.3385 23.158L33.9323 19.363C33.9555 19.2272 34.0247 19.1038 34.1281 19.0145C34.2314 18.9252 34.3622 18.8756 34.4979 18.8743Z" fill="#F4F2F2"/>
</g>
<defs>
<clipPath id="clip0_5_5221">
<rect width="203" height="46" fill="white"/>
</clipPath>
</defs>
</svg>
