<svg width="177" height="40" viewBox="0 0 177 40" fill="none" xmlns="http://www.w3.org/2000/svg">
<g clip-path="url(#clip0_190_2563)">
<path d="M60.4511 10.125H57.6357C57.4636 8.12504 56.2342 7.12504 53.9474 7.12504C53.1306 7.089 52.323 7.31176 51.6361 7.76254C51.3638 7.95765 51.1436 8.21869 50.9955 8.52207C50.8474 8.82544 50.776 9.16156 50.7878 9.50004C50.7577 9.77285 50.7999 10.0489 50.9102 10.2995C51.0204 10.5501 51.1947 10.7661 51.4148 10.925C52.3035 11.3424 53.2355 11.6568 54.1933 11.8625L55.0662 12.1C56.3866 12.3703 57.6732 12.7895 58.902 13.35C59.6039 13.694 60.1911 14.2397 60.591 14.9196C60.9909 15.5995 61.1859 16.3836 61.1519 17.175C61.1634 17.8776 61.0337 18.5752 60.7708 19.225C60.5404 19.801 60.1926 20.3207 59.7503 20.75C59.3046 21.1732 58.7938 21.5195 58.2381 21.775C57.6553 22.04 57.0449 22.237 56.4186 22.3625C55.7691 22.4788 55.1109 22.5373 54.4515 22.5375C52.6212 22.6255 50.8151 22.0838 49.3248 21C48.6628 20.4625 48.1384 19.7704 47.7959 18.9826C47.4534 18.1948 47.3031 17.3346 47.3577 16.475H50.2714C50.2336 17.005 50.3262 17.5362 50.5409 18.0207C50.7555 18.5051 51.0854 18.9276 51.5009 19.25C52.4234 19.8965 53.5291 20.2171 54.6482 20.1625C55.5853 20.2174 56.5153 19.9678 57.3038 19.45C57.5969 19.2227 57.8316 18.9266 57.9879 18.587C58.1442 18.2475 58.2174 17.8746 58.2013 17.5C58.2096 17.2541 58.1693 17.0091 58.0827 16.7793C57.9961 16.5495 57.865 16.3398 57.6972 16.1625C57.3849 15.8415 57.0072 15.594 56.5907 15.4375C56.1973 15.2875 55.5088 15.0875 54.5376 14.825H54.2794C52.8604 14.5057 51.4734 14.0538 50.1362 13.475C49.4959 13.1722 48.9516 12.6933 48.5649 12.0925C48.1782 11.4917 47.9645 10.7929 47.9478 10.075V9.73754C47.9255 9.03772 48.0679 8.34259 48.3629 7.70994C48.658 7.07728 49.0974 6.52536 49.6444 6.10004C50.9532 5.12966 52.5513 4.64838 54.1687 4.73754C55.7629 4.66943 57.3349 5.13489 58.6439 6.06254C59.2337 6.55136 59.7039 7.17269 60.0175 7.87763C60.3311 8.58257 60.4796 9.35189 60.4511 10.125Z" fill="white"/>
<path d="M74.2453 18.325C74.0025 19.5894 73.3057 20.7167 72.2905 21.4875C71.251 22.25 69.9943 22.6451 68.7129 22.6125C67.8954 22.6553 67.0787 22.5151 66.3203 22.2019C65.562 21.8888 64.8804 21.4102 64.3238 20.8C63.2145 19.5151 62.6335 17.8458 62.701 16.1375C62.6393 14.3782 63.2319 12.6599 64.3607 11.325C64.8892 10.7103 65.5442 10.2214 66.2794 9.89306C67.0145 9.5647 67.8118 9.40489 68.6145 9.42499C69.4095 9.38237 70.2036 9.52458 70.9365 9.84082C71.6693 10.1571 72.3216 10.639 72.8438 11.25C73.9593 12.6943 74.5148 14.5045 74.4051 16.3375V16.625H65.3934C65.3627 17.6708 65.6885 18.6953 66.3155 19.525C66.6255 19.869 67.0071 20.1384 67.4324 20.3136C67.8578 20.4888 68.3162 20.5652 68.7743 20.5375C69.4146 20.5648 70.0458 20.3758 70.5693 20C71.0883 19.5428 71.468 18.9443 71.6635 18.275L74.2453 18.325ZM71.7127 14.8375C71.6994 13.914 71.3589 13.0263 70.7537 12.3375C70.4761 12.0406 70.1397 11.8069 69.7667 11.6517C69.3937 11.4966 68.9927 11.4236 68.5899 11.4375C68.1938 11.4207 67.7987 11.4889 67.4301 11.6375C67.0616 11.7861 66.7279 12.0118 66.4507 12.3C65.8546 12.9987 65.5004 13.8769 65.4426 14.8L71.7127 14.8375Z" fill="white"/>
<path d="M79.0525 9.7875V11.625C79.484 10.9376 80.0835 10.3759 80.7925 9.99464C81.5015 9.61341 82.2956 9.42575 83.0973 9.45C83.6674 9.40625 84.24 9.48738 84.7766 9.68793C85.3132 9.88848 85.8013 10.2038 86.2077 10.6125C86.9644 11.5395 87.3506 12.7219 87.2896 13.925V22.2H84.5357V15C84.5418 14.5821 84.5171 14.1642 84.4619 13.75C84.4075 13.4049 84.3083 13.0686 84.1669 12.75C84.02 12.4176 83.7634 12.1479 83.4415 11.9875C83.0549 11.8129 82.635 11.7275 82.2121 11.7375C80.2204 11.7375 79.2246 12.9875 79.2246 15.4875V22.175H76.4952V9.7875H79.0525Z" fill="white"/>
<path d="M101.612 5.07495V22.2H99.0799V20.5C98.6798 21.1711 98.1024 21.7145 97.4133 22.0682C96.7242 22.4218 95.9512 22.5714 95.1826 22.5C94.4111 22.5351 93.6418 22.3939 92.9311 22.0867C92.2205 21.7795 91.5866 21.3142 91.0763 20.725C90.0041 19.3753 89.4611 17.6699 89.5518 15.9375C89.4796 14.2422 90.0122 12.5775 91.0517 11.25C91.549 10.6645 92.17 10.2008 92.8682 9.89344C93.5665 9.58609 94.324 9.44304 95.0842 9.47495C95.8401 9.42778 96.5951 9.58027 97.2759 9.91758C97.9567 10.2549 98.54 10.7656 98.9692 11.4V5.07495H101.612ZM95.5883 11.6625C95.1178 11.6397 94.6488 11.7323 94.2209 11.9325C93.7929 12.1326 93.4186 12.4344 93.1294 12.8125C92.4958 13.7179 92.1836 14.8154 92.2442 15.925C92.183 17.0733 92.5035 18.2092 93.154 19.15C93.444 19.5287 93.8178 19.8325 94.2451 20.0367C94.6724 20.2409 95.141 20.3396 95.6129 20.325C96.083 20.3446 96.5509 20.2506 96.9784 20.0507C97.4058 19.8508 97.7805 19.5507 98.0717 19.175C98.7215 18.2438 99.0382 17.1145 98.9692 15.975C99.037 14.8414 98.7154 13.7191 98.0594 12.8C97.757 12.435 97.3782 12.1434 96.9506 11.9466C96.523 11.7498 96.0575 11.6527 95.5883 11.6625Z" fill="white"/>
<path d="M122.365 5.07495V22.2H119.55V8.99995L114.866 22.2H112.407L107.649 8.99995V22.2H104.858V5.07495H109.001L113.71 18.4749L118.247 5.07495H122.365Z" fill="white"/>
<path d="M136.295 9.78748L131.783 21.9625C131.734 22.0708 131.647 22.3083 131.525 22.675C131.389 23.0375 131.303 23.275 131.266 23.4125L130.984 24.075C130.902 24.3113 130.795 24.5376 130.664 24.75C130.59 24.8875 130.467 25.075 130.32 25.325C130.202 25.5349 130.053 25.7248 129.877 25.8875L129.385 26.3C129.208 26.4569 129.004 26.5797 128.783 26.6625C128.553 26.7414 128.319 26.8082 128.082 26.8625C127.802 26.9145 127.518 26.9396 127.234 26.9375C126.609 26.9328 125.984 26.8869 125.365 26.8V24.4875C125.834 24.5898 126.312 24.6483 126.791 24.6625C126.967 24.6599 127.141 24.6304 127.308 24.575C127.471 24.5153 127.619 24.4167 127.738 24.2875L128.07 23.9C128.178 23.7444 128.269 23.5766 128.34 23.4L128.537 22.8875C128.537 22.775 128.648 22.575 128.734 22.325C128.82 22.075 128.857 21.9125 128.869 21.8375L124.173 9.78748H127.135L130.393 18.9375L133.479 9.78748H136.295Z" fill="white"/>
<path d="M152.597 15.6875C152.579 16.6408 152.371 17.5805 151.987 18.4502C151.603 19.3199 151.049 20.1016 150.36 20.7484C149.671 21.3952 148.861 21.8938 147.978 22.2141C147.094 22.5344 146.156 22.67 145.22 22.6125C144.143 22.6524 143.07 22.4489 142.08 22.0166C141.089 21.5843 140.205 20.934 139.491 20.1125C137.991 18.291 137.222 15.9605 137.34 13.5875C137.319 12.049 137.634 10.525 138.262 9.125C138.882 7.75307 139.885 6.59652 141.146 5.7988C142.407 5.00108 143.871 4.59729 145.356 4.6375C147.063 4.6185 148.727 5.18674 150.077 6.25C150.737 6.76428 151.288 7.40943 151.695 8.1464C152.103 8.88336 152.36 9.69681 152.449 10.5375H149.511C149.353 9.58188 148.849 8.72114 148.097 8.125C147.277 7.53521 146.293 7.2248 145.288 7.23828C144.283 7.25175 143.309 7.58842 142.503 8.2C141.739 8.81518 141.164 9.63903 140.844 10.575C140.512 11.5607 140.346 12.5959 140.352 13.6375C140.347 14.4348 140.446 15.2293 140.647 16C140.823 16.7164 141.109 17.3999 141.495 18.025C141.878 18.6475 142.411 19.1597 143.044 19.5125C143.748 19.8899 144.535 20.0791 145.331 20.0625C147.79 20.0625 149.265 18.6 149.634 15.6875H152.597Z" fill="white"/>
<path d="M154.773 13.6125C155.068 10.8125 156.839 9.41255 160.121 9.41255C161.412 9.33932 162.696 9.65686 163.809 10.325C164.259 10.6364 164.621 11.0623 164.858 11.5602C165.096 12.0581 165.2 12.6106 165.162 13.1625V19.4125C165.143 19.6621 165.19 19.9123 165.297 20.1375C165.36 20.2071 165.439 20.2603 165.527 20.2929C165.614 20.3255 165.708 20.3365 165.801 20.325C166.006 20.3424 166.211 20.3424 166.416 20.325V22.25C165.846 22.4073 165.26 22.4954 164.67 22.5125C163.514 22.5125 162.85 22.025 162.678 21.025C162.092 21.5476 161.411 21.947 160.672 22.2002C159.933 22.4534 159.153 22.5553 158.375 22.5C157.287 22.5652 156.215 22.2078 155.375 21.5C155.002 21.1638 154.708 20.7467 154.514 20.2794C154.321 19.8121 154.233 19.3065 154.257 18.8C154.252 18.4667 154.293 18.1342 154.38 17.8125C154.442 17.5409 154.532 17.2768 154.65 17.025C154.765 16.7816 154.934 16.5679 155.142 16.4L155.707 15.9125C155.932 15.7506 156.181 15.6281 156.445 15.55L157.207 15.3C157.49 15.2171 157.777 15.1545 158.068 15.1125L158.879 14.9875L159.728 14.875C160.384 14.8002 161.037 14.6917 161.682 14.55C161.956 14.5063 162.208 14.3698 162.396 14.1625C162.542 13.8873 162.602 13.5734 162.568 13.2625C162.568 12.0125 161.719 11.3875 160.109 11.3875C159.423 11.3316 158.739 11.5121 158.166 11.9C157.697 12.3411 157.414 12.9509 157.379 13.6L154.773 13.6125ZM162.543 15.975C162.315 16.0966 162.076 16.197 161.83 16.275C161.617 16.3459 161.399 16.4002 161.178 16.4375L160.392 16.55L159.703 16.65L158.916 16.775C158.732 16.775 158.498 16.8875 158.215 16.9875C157.982 17.06 157.764 17.179 157.576 17.3375C157.415 17.4935 157.285 17.6804 157.195 17.8875C157.076 18.1455 157.018 18.4278 157.023 18.7125C157.009 18.9715 157.054 19.2302 157.154 19.4687C157.254 19.7071 157.407 19.9189 157.601 20.0875C158.07 20.4357 158.644 20.604 159.224 20.5625C159.726 20.6006 160.23 20.5337 160.706 20.3661C161.182 20.1984 161.619 19.9334 161.99 19.5875C162.433 18.9666 162.63 18.1994 162.543 17.4375V15.975Z" fill="white"/>
<path d="M170.817 5.07495V22.2H168.149V5.07495H170.817Z" fill="white"/>
<path d="M176.522 5.07495V22.2H173.842V5.07495H176.522Z" fill="white"/>
<path d="M47.3331 29.65H49.4109C49.7986 29.6369 50.1808 29.7461 50.5051 29.9625C50.6516 30.0642 50.7694 30.2031 50.847 30.3653C50.9247 30.5275 50.9593 30.7075 50.9477 30.8875C50.9489 31.1467 50.862 31.3984 50.7018 31.6C50.5473 31.7918 50.336 31.9277 50.0994 31.9875C50.3767 32.0344 50.6337 32.1651 50.837 32.3625C50.9387 32.4724 51.0172 32.6023 51.068 32.7441C51.1187 32.886 51.1405 33.0368 51.1321 33.1875C51.1428 33.3878 51.1059 33.5877 51.0246 33.7705C50.9433 33.9532 50.8199 34.1134 50.6649 34.2375C50.313 34.5091 49.8763 34.6423 49.4355 34.6125H47.3331V29.65ZM47.788 30.0625V31.85H49.3248C49.6135 31.8586 49.8988 31.785 50.1485 31.6375C50.2605 31.5648 50.3506 31.4622 50.4092 31.341C50.4677 31.2197 50.4924 31.0845 50.4805 30.95C50.4827 30.7902 50.4491 30.632 50.3821 30.4875C50.3107 30.3652 50.2032 30.2689 50.0748 30.2125C49.9452 30.1538 49.8089 30.1119 49.6691 30.0875H49.2019L47.788 30.0625ZM47.788 32.225V34.2H49.2387C49.4106 34.2142 49.5833 34.2142 49.7551 34.2C49.9081 34.1819 50.0574 34.1397 50.1977 34.075C50.3415 34.0095 50.4617 33.9003 50.5419 33.7625C50.6283 33.6018 50.6708 33.4205 50.6649 33.2375C50.6723 33.0583 50.6297 32.8806 50.5419 32.725C50.4566 32.5898 50.332 32.485 50.1854 32.425C50.0347 32.3659 49.878 32.324 49.7182 32.3C49.5505 32.2862 49.3819 32.2862 49.2142 32.3L47.788 32.225Z" fill="white"/>
<path d="M53.6032 30.975V31.425H53.4925C53.2352 31.4194 52.9837 31.5031 52.7795 31.6625C52.5789 31.813 52.4355 32.0294 52.3738 32.275C52.3063 32.5656 52.2774 32.8641 52.2877 33.1625V34.625H51.8697V31.0375H52.2631V31.8875C52.3799 31.6134 52.5615 31.373 52.7918 31.1875C53.0372 31.0404 53.3184 30.9667 53.6032 30.975Z" fill="white"/>
<path d="M54.4023 29.6375V30.35H53.972V29.6375H54.4023ZM54.4023 31.0375V34.6125H53.972V31.0375H54.4023Z" fill="white"/>
<path d="M55.6318 31.0375V31.7125C55.7503 31.4741 55.9284 31.2715 56.1481 31.125C56.4032 30.9822 56.6937 30.918 56.984 30.9402C57.2744 30.9624 57.5521 31.07 57.7833 31.25C57.8989 31.3748 57.988 31.5224 58.0451 31.6837C58.1022 31.845 58.1261 32.0164 58.1152 32.1875V34.6875H57.6604V32.3125C57.6604 31.65 57.3653 31.3125 56.7629 31.3125C56.6126 31.3082 56.4633 31.3373 56.3253 31.3978C56.1873 31.4582 56.0639 31.5486 55.9637 31.6625C55.7425 31.9502 55.6331 32.3106 55.6564 32.675V34.6125H55.2261V31.0375H55.6318Z" fill="white"/>
<path d="M61.8896 31.0375V34.4125C61.9205 34.6299 61.9011 34.8517 61.8329 35.0601C61.7648 35.2686 61.6497 35.458 61.497 35.6133C61.3442 35.7687 61.1579 35.8856 60.9529 35.9549C60.7478 36.0242 60.5297 36.0439 60.3159 36.0125C59.9541 36.0316 59.596 35.9307 59.2955 35.725C59.1704 35.6358 59.0676 35.5182 58.995 35.3815C58.9224 35.2448 58.8822 35.0928 58.8775 34.9375H59.3078C59.3815 35.425 59.7258 35.675 60.3282 35.675C60.4914 35.6925 60.6563 35.671 60.81 35.6125C60.9636 35.5539 61.1017 35.4598 61.2134 35.3375C61.4107 35.0588 61.5024 34.717 61.4716 34.375V33.75C61.3755 33.9971 61.2046 34.2066 60.9835 34.3482C60.7625 34.4898 60.5028 34.5561 60.2421 34.5375C60.033 34.5451 59.8247 34.5065 59.6316 34.4245C59.4385 34.3426 59.2651 34.2191 59.1234 34.0625C58.8497 33.7063 58.7063 33.2644 58.7176 32.8125C58.6916 32.3259 58.8401 31.8462 59.1356 31.4625C59.2754 31.2984 59.4495 31.1683 59.6453 31.0818C59.841 30.9952 60.0534 30.9545 60.2667 30.9625C60.5259 30.943 60.7845 31.0075 61.0054 31.1467C61.2263 31.286 61.3981 31.4928 61.4962 31.7375V31.0625L61.8896 31.0375ZM61.1642 31.6875C61.0594 31.5645 60.9288 31.4669 60.782 31.402C60.6352 31.3371 60.4759 31.3065 60.3159 31.3125C60.1565 31.3062 59.9978 31.3379 59.8526 31.4052C59.7074 31.4725 59.5797 31.5735 59.4799 31.7C59.2582 32.0067 59.1495 32.3827 59.1725 32.7625C59.1532 33.1342 59.2619 33.5011 59.4799 33.8C59.5765 33.9271 59.7018 34.0287 59.8452 34.0962C59.9885 34.1636 60.1458 34.1949 60.3036 34.1875C60.4675 34.1915 60.6301 34.1576 60.7792 34.0883C60.9283 34.019 61.0599 33.9161 61.1642 33.7875C61.3858 33.4761 61.4944 33.0962 61.4716 32.7125C61.4922 32.3446 61.3833 31.9812 61.1642 31.6875Z" fill="white"/>
<path d="M67.3359 31.0375L65.959 34.7875C65.8552 35.1295 65.7019 35.4539 65.5041 35.75C65.4369 35.8392 65.3488 35.9099 65.2479 35.9557C65.147 36.0016 65.0364 36.0211 64.9262 36.0125H64.5451V35.6375H64.8525C64.9292 35.6395 65.0052 35.6224 65.0738 35.5875C65.1424 35.5526 65.2015 35.5011 65.2459 35.4375C65.3713 35.224 65.4743 34.9978 65.5533 34.7625V34.6875L64.1394 31.15H64.6066L65.5655 33.65C65.5655 33.75 65.6639 33.9625 65.7746 34.2875C65.8975 33.9 65.959 33.6625 65.9836 33.6125L66.8565 31.2L67.3359 31.0375Z" fill="white"/>
<path d="M69.2661 30.925C69.4953 30.9149 69.7239 30.9555 69.9362 31.044C70.1484 31.1325 70.3393 31.2667 70.4956 31.4375C70.8062 31.8335 70.9637 32.3315 70.9382 32.8375C70.9646 33.3359 70.8067 33.8263 70.4956 34.2125C70.3345 34.3772 70.1429 34.508 69.9319 34.5973C69.7209 34.6865 69.4947 34.7324 69.2661 34.7324C69.0376 34.7324 68.8113 34.6865 68.6004 34.5973C68.3894 34.508 68.1978 34.3772 68.0367 34.2125C67.7168 33.8307 67.5539 33.3382 67.5818 32.8375C67.5557 32.3332 67.7182 31.8375 68.0367 31.45C68.1919 31.277 68.3822 31.1404 68.5945 31.0497C68.8068 30.959 69.036 30.9165 69.2661 30.925ZM70.1636 31.7125C70.0543 31.5794 69.9168 31.4731 69.7614 31.4017C69.6059 31.3302 69.4366 31.2955 69.2661 31.3C69.0952 31.2926 68.925 31.3261 68.7692 31.3977C68.6133 31.4694 68.4761 31.5772 68.3687 31.7125C68.1319 32.0316 68.0143 32.4259 68.0367 32.825C68.0164 33.2238 68.1338 33.6173 68.3687 33.9375C68.478 34.0737 68.6173 34.1821 68.7753 34.2537C68.9333 34.3253 69.1056 34.3583 69.2784 34.35C69.4474 34.3563 69.6155 34.3223 69.7692 34.2507C69.923 34.1791 70.058 34.0718 70.1636 33.9375C70.4004 33.6183 70.518 33.2241 70.4956 32.825C70.5159 32.4261 70.3985 32.0326 70.1636 31.7125Z" fill="white"/>
<path d="M74.4175 31.0375V34.6125H74.0118V33.95C73.9032 34.1858 73.7287 34.384 73.5101 34.5196C73.2914 34.6552 73.0383 34.7223 72.7823 34.7125C72.6197 34.7228 72.4568 34.6981 72.3043 34.64C72.1517 34.5818 72.013 34.4915 71.8972 34.375C71.7784 34.2473 71.6874 34.0956 71.6302 33.9297C71.573 33.7639 71.5509 33.5876 71.5652 33.4125V31.0375H71.9955V33.225C71.9767 33.5156 72.0499 33.8048 72.2045 34.05C72.2883 34.1497 72.3949 34.2269 72.515 34.2749C72.635 34.3228 72.7649 34.34 72.893 34.325C73.0458 34.3309 73.1979 34.3 73.3367 34.2348C73.4756 34.1696 73.5974 34.072 73.6921 33.95C73.895 33.682 73.9994 33.3504 73.9872 33.0125V31.0375H74.4175Z" fill="white"/>
<path d="M77.0485 30.975V31.425H76.9255C76.6722 31.4212 76.4252 31.5049 76.2247 31.6625C76.021 31.8124 75.8736 32.0284 75.8067 32.275C75.7454 32.5666 75.7165 32.8643 75.7207 33.1625V34.625H75.3027V31.0375H75.7084V31.8875C75.8259 31.6348 76.0034 31.4157 76.2247 31.25C76.4677 31.0798 76.7536 30.9844 77.0485 30.975Z" fill="white"/>
<path d="M83.4784 32.7126C83.4583 33.2655 83.2293 33.7894 82.8391 34.1751C82.4023 34.55 81.8415 34.7419 81.2707 34.7117C80.6998 34.6816 80.1616 34.4316 79.7655 34.0126C79.3404 33.4866 79.1253 32.8173 79.1631 32.1376C79.1395 31.4674 79.3533 30.811 79.7655 30.2876C79.9664 30.0408 80.2208 29.8446 80.5088 29.7145C80.7967 29.5844 81.1104 29.5238 81.4252 29.5376C81.9025 29.5348 82.368 29.6882 82.753 29.9751C82.9394 30.1089 83.0952 30.282 83.2098 30.4826C83.3243 30.6832 83.395 30.9066 83.4169 31.1376H82.9497C82.8926 30.7934 82.7078 30.4847 82.4333 30.2751C82.1405 30.0499 81.7798 29.935 81.4129 29.9501C81.165 29.9422 80.9187 29.9922 80.6928 30.0962C80.4669 30.2002 80.2674 30.3555 80.1097 30.5501C79.7903 31.0157 79.619 31.5698 79.619 32.1376C79.619 32.7053 79.7903 33.2594 80.1097 33.7251C80.2596 33.9088 80.4475 34.0567 80.66 34.1582C80.8725 34.2598 81.1044 34.3125 81.3392 34.3126C81.5453 34.3225 81.7512 34.2888 81.9438 34.2134C82.1364 34.1381 82.3115 34.0229 82.4579 33.8751C82.7505 33.5567 82.9282 33.1469 82.962 32.7126H83.4784Z" fill="white"/>
<path d="M85.6176 30.925C85.8472 30.9114 86.0768 30.9505 86.2896 31.0392C86.5024 31.1279 86.6929 31.264 86.847 31.4375C87.1577 31.8336 87.3151 32.3315 87.2896 32.8375C87.316 33.3359 87.1581 33.8264 86.847 34.2125C86.6901 34.3816 86.4989 34.514 86.2865 34.6004C86.0742 34.6867 85.8459 34.725 85.6176 34.7125C85.3881 34.7251 85.1587 34.6857 84.9461 34.5971C84.7334 34.5084 84.5428 34.3728 84.3881 34.2C84.0682 33.8182 83.9053 33.3257 83.9333 32.825C83.9072 32.3207 84.0697 31.825 84.3881 31.4375C84.5428 31.2647 84.7334 31.129 84.9461 31.0404C85.1587 30.9518 85.3881 30.9123 85.6176 30.925ZM86.5028 31.7125C86.3953 31.5772 86.2581 31.4694 86.1023 31.3978C85.9464 31.3261 85.7762 31.2926 85.6053 31.3C85.4348 31.2955 85.2655 31.3303 85.1101 31.4017C84.9546 31.4731 84.8171 31.5794 84.7078 31.7125C84.471 32.0316 84.3534 32.4259 84.3759 32.825C84.3555 33.2238 84.4729 33.6174 84.7078 33.9375C84.8178 34.073 84.9572 34.1808 85.115 34.2524C85.2729 34.3239 85.4449 34.3573 85.6176 34.35C85.7885 34.3573 85.9587 34.3239 86.1145 34.2522C86.2704 34.1806 86.4076 34.0728 86.5151 33.9375C86.7419 33.6139 86.8546 33.2219 86.8347 32.825C86.855 32.4261 86.7376 32.0326 86.5028 31.7125Z" fill="white"/>
<path d="M88.3347 31.0375V31.6625C88.4557 31.4438 88.6238 31.2558 88.8264 31.1125C89.0305 30.989 89.2653 30.9282 89.5026 30.9375C89.728 30.9312 89.9502 30.992 90.1419 31.1125C90.3177 31.2367 90.4475 31.4171 90.5108 31.625C90.6183 31.4071 90.7861 31.2259 90.9937 31.1038C91.2012 30.9816 91.4393 30.9238 91.6787 30.9375C91.9687 30.9305 92.2517 31.0279 92.4779 31.2125C92.5895 31.3188 92.6761 31.4493 92.7315 31.5943C92.7868 31.7392 92.8094 31.895 92.7975 32.05V34.6125H92.3672V32.1125C92.3855 31.9989 92.3773 31.8825 92.3434 31.7727C92.3095 31.6628 92.2507 31.5626 92.1718 31.4799C92.093 31.3973 91.9962 31.3346 91.8892 31.2969C91.7822 31.2591 91.668 31.2474 91.5558 31.2625C91.4223 31.2536 91.2885 31.276 91.1649 31.3281C91.0412 31.3801 90.931 31.4603 90.8427 31.5625C90.6611 31.782 90.5687 32.0637 90.5845 32.35V34.55H90.1542V32.2125C90.1542 31.625 89.896 31.325 89.3797 31.325C89.2341 31.315 89.0883 31.3417 88.9553 31.4027C88.8224 31.4638 88.7063 31.5573 88.6174 31.675C88.434 31.9368 88.343 32.254 88.3593 32.575V34.6125H87.929V31.0375H88.3347Z" fill="white"/>
<path d="M94.0269 31.0375V31.6625C94.1521 31.4429 94.3244 31.2549 94.531 31.1125C94.7315 30.9913 94.9617 30.9306 95.1949 30.9375C95.4239 30.933 95.6495 30.9936 95.8465 31.1125C96.019 31.2373 96.1447 31.418 96.203 31.625C96.3145 31.3966 96.492 31.2083 96.7118 31.0854C96.9315 30.9625 97.183 30.9109 97.4324 30.9375C97.7224 30.9304 98.0054 31.0278 98.2316 31.2125C98.3454 31.3176 98.4344 31.4476 98.4918 31.5926C98.5493 31.7376 98.5738 31.894 98.5635 32.05V34.6125H98.1332V32.1125C98.1515 31.9988 98.1433 31.8825 98.1094 31.7726C98.0755 31.6628 98.0167 31.5625 97.9378 31.4799C97.859 31.3973 97.7622 31.3346 97.6552 31.2968C97.5482 31.2591 97.434 31.2473 97.3218 31.2625C97.1864 31.2535 97.0509 31.2758 96.9252 31.3278C96.7996 31.3798 96.6872 31.46 96.5964 31.5625C96.4148 31.7819 96.3224 32.0636 96.3382 32.35V34.55H95.8956V32.2125C95.8956 31.625 95.6375 31.325 95.1211 31.325C94.9736 31.3139 94.8258 31.3401 94.6906 31.4012C94.5555 31.4622 94.4373 31.5563 94.3466 31.675C94.1631 31.9368 94.0721 32.254 94.0884 32.575V34.6125H93.6581V31.0375H94.0269Z" fill="white"/>
<path d="M102.153 31.0375V34.6125H101.76V33.95C101.65 34.1848 101.475 34.382 101.257 34.5175C101.039 34.6529 100.786 34.7207 100.531 34.7125C100.358 34.727 100.185 34.7045 100.022 34.6464C99.8587 34.5882 99.7095 34.4957 99.5839 34.375C99.4673 34.2462 99.3786 34.094 99.3236 33.9282C99.2685 33.7624 99.2483 33.5867 99.2643 33.4125V31.0375H99.6946V33.225C99.6721 33.5143 99.741 33.8033 99.8913 34.05C99.9757 34.1488 100.082 34.2255 100.202 34.2733C100.322 34.3212 100.452 34.3389 100.58 34.325C100.734 34.3318 100.889 34.3015 101.03 34.2363C101.171 34.1711 101.295 34.073 101.391 33.95C101.584 33.6776 101.684 33.3481 101.674 33.0125V31.0375H102.153Z" fill="white"/>
<path d="M103.395 31.0375V31.7125C103.506 31.4724 103.68 31.2688 103.899 31.125C104.123 30.9927 104.378 30.9276 104.637 30.9375C104.958 30.923 105.274 31.0298 105.522 31.2375C105.638 31.3622 105.727 31.5099 105.784 31.6711C105.841 31.8324 105.865 32.0039 105.854 32.175V34.675H105.424V32.3125C105.424 31.65 105.129 31.3125 104.526 31.3125C104.374 31.308 104.223 31.337 104.083 31.3974C103.943 31.4578 103.817 31.5482 103.715 31.6625C103.498 31.9519 103.393 32.3121 103.42 32.675V34.6125H102.989V31.0375H103.395Z" fill="white"/>
<path d="M107.096 29.6375V30.35H106.665V29.6375H107.096ZM107.096 31.0375V34.6125H106.665V31.0375H107.096Z" fill="white"/>
<path d="M110.87 33.325C110.825 33.7009 110.661 34.0518 110.403 34.325C110.268 34.4567 110.107 34.559 109.932 34.6257C109.757 34.6923 109.57 34.7218 109.382 34.7125C109.153 34.7288 108.922 34.6911 108.709 34.6022C108.496 34.5133 108.306 34.3757 108.153 34.2C107.845 33.8221 107.687 33.3404 107.71 32.85C107.696 32.3394 107.867 31.8413 108.19 31.45C108.342 31.2735 108.532 31.1345 108.745 31.0435C108.958 30.9526 109.189 30.912 109.419 30.925C109.775 30.9113 110.123 31.0265 110.403 31.25C110.664 31.4833 110.827 31.8101 110.858 32.1625H110.403C110.398 32.0366 110.369 31.9129 110.317 31.7986C110.265 31.6843 110.191 31.5818 110.099 31.4968C110.008 31.4119 109.9 31.3464 109.784 31.304C109.667 31.2616 109.543 31.2432 109.419 31.25C109.252 31.2425 109.085 31.2761 108.933 31.3479C108.782 31.4197 108.649 31.5276 108.546 31.6625C108.31 31.9864 108.192 32.3845 108.215 32.7875C108.197 33.1841 108.309 33.5755 108.534 33.9C108.633 34.0328 108.761 34.1397 108.909 34.2115C109.056 34.2833 109.219 34.3179 109.382 34.3125C109.649 34.3233 109.908 34.2292 110.108 34.05C110.302 33.8409 110.422 33.5731 110.452 33.2875L110.87 33.325Z" fill="white"/>
<path d="M114.558 34.25V34.5875C114.444 34.6066 114.328 34.6066 114.214 34.5875C114.143 34.5983 114.069 34.5875 114.004 34.5564C113.938 34.5253 113.883 34.4752 113.845 34.4125C113.779 34.2635 113.75 34.1005 113.759 33.9375C113.622 34.1671 113.426 34.3546 113.192 34.4801C112.958 34.6055 112.695 34.6643 112.431 34.65C112.127 34.6671 111.827 34.5741 111.583 34.3875C111.484 34.2941 111.406 34.1796 111.355 34.0521C111.304 33.9247 111.281 33.7874 111.288 33.65C111.288 33.0125 111.718 32.6375 112.591 32.55H112.776H113.108H113.243H113.354H113.464H113.538H113.612C113.659 32.5061 113.694 32.4513 113.716 32.3904C113.737 32.3294 113.744 32.2641 113.735 32.2C113.747 32.09 113.732 31.9786 113.691 31.876C113.651 31.7734 113.585 31.6828 113.501 31.6125C113.302 31.478 113.063 31.4163 112.825 31.4375C112.579 31.4196 112.336 31.4904 112.136 31.6375C111.97 31.8077 111.874 32.0354 111.866 32.275H111.448C111.437 32.0819 111.47 31.8889 111.545 31.711C111.619 31.5332 111.733 31.3753 111.878 31.25C112.17 31.0234 112.533 30.9123 112.899 30.9375C113.234 30.9201 113.565 31.0121 113.845 31.2C113.959 31.2898 114.049 31.4059 114.109 31.5386C114.169 31.6713 114.196 31.8166 114.19 31.9625V34.1125C114.181 34.1495 114.181 34.188 114.19 34.225C114.246 34.2432 114.306 34.2432 114.362 34.225L114.558 34.25ZM113.735 32.6625C113.679 32.715 113.611 32.7535 113.538 32.775L113.28 32.8375L112.886 32.9H112.776C112.655 32.9104 112.536 32.9313 112.419 32.9625L112.1 33.075C111.987 33.1175 111.892 33.1966 111.829 33.3C111.747 33.4334 111.714 33.5922 111.737 33.748C111.759 33.9037 111.836 34.0462 111.952 34.15C112.125 34.2726 112.332 34.3341 112.542 34.325C112.852 34.3373 113.155 34.2302 113.39 34.025C113.504 33.9274 113.595 33.8045 113.654 33.6658C113.714 33.527 113.741 33.3762 113.735 33.225V32.6625Z" fill="white"/>
<path d="M116.427 31.0375V31.3875H115.702V33.8875C115.702 33.8875 115.702 33.9875 115.702 34.0625C115.713 34.0929 115.731 34.1202 115.754 34.1419C115.778 34.1637 115.806 34.1793 115.837 34.1875C115.922 34.2035 116.01 34.2035 116.095 34.1875C116.189 34.1975 116.284 34.1975 116.378 34.1875V34.575H115.997C115.579 34.575 115.333 34.4375 115.271 34.1625C115.248 33.9005 115.248 33.637 115.271 33.375V31.3875H114.657V31.0375H115.271V30H115.702V31.1L116.427 31.0375Z" fill="white"/>
<path d="M117.484 29.6375V30.35H117.054V29.6375H117.484ZM117.484 31.0375V34.6125H117.054V31.0375H117.484Z" fill="white"/>
<path d="M119.808 30.925C120.038 30.9114 120.267 30.9505 120.48 31.0392C120.693 31.1279 120.883 31.264 121.037 31.4375C121.329 31.8394 121.486 32.3256 121.486 32.825C121.486 33.3244 121.329 33.8106 121.037 34.2125C120.876 34.3773 120.685 34.508 120.474 34.5973C120.263 34.6865 120.037 34.7324 119.808 34.7324C119.58 34.7324 119.353 34.6865 119.142 34.5973C118.931 34.508 118.74 34.3773 118.579 34.2125C118.259 33.8307 118.096 33.3382 118.124 32.8375C118.098 32.3332 118.26 31.8375 118.579 31.45C118.734 31.277 118.924 31.1404 119.136 31.0497C119.349 30.9591 119.578 30.9165 119.808 30.925ZM120.706 31.7125C120.596 31.5794 120.459 31.4731 120.303 31.4017C120.148 31.3303 119.979 31.2955 119.808 31.3C119.637 31.2926 119.467 31.3261 119.311 31.3978C119.155 31.4694 119.018 31.5772 118.911 31.7125C118.674 32.0316 118.556 32.4259 118.579 32.825C118.561 33.2216 118.673 33.613 118.898 33.9375C119.01 34.074 119.152 34.1823 119.312 34.2539C119.472 34.3254 119.646 34.3583 119.82 34.35C119.989 34.3564 120.157 34.3224 120.311 34.2507C120.465 34.1791 120.6 34.0718 120.706 33.9375C120.942 33.6183 121.06 33.2241 121.037 32.825C121.058 32.4261 120.94 32.0326 120.706 31.7125Z" fill="white"/>
<path d="M122.513 31.0375V31.7125C122.631 31.4741 122.809 31.2715 123.029 31.125C123.253 30.9927 123.508 30.9277 123.767 30.9375C124.088 30.9253 124.402 31.0319 124.652 31.2375C124.768 31.3623 124.857 31.5099 124.914 31.6712C124.971 31.8324 124.995 32.0039 124.984 32.175V34.675H124.554V32.3125C124.554 31.65 124.246 31.3125 123.656 31.3125C123.504 31.308 123.353 31.337 123.213 31.3974C123.073 31.4578 122.947 31.5482 122.845 31.6625C122.628 31.9519 122.523 32.3122 122.55 32.675V34.6125H122.119V31.0375H122.513Z" fill="white"/>
<path d="M129.09 31.0375V31.3875H128.365V33.65C128.357 33.7373 128.357 33.8252 128.365 33.9125C128.357 33.9705 128.357 34.0295 128.365 34.0875C128.376 34.1179 128.394 34.1452 128.417 34.1669C128.441 34.1887 128.469 34.2043 128.5 34.2125C128.585 34.2285 128.673 34.2285 128.758 34.2125C128.852 34.2229 128.947 34.2229 129.041 34.2125V34.6H128.672C128.238 34.6 127.992 34.4625 127.935 34.1875C127.914 33.9254 127.914 33.6621 127.935 33.4V31.3875H127.308V31.0375H127.935V30H128.353V31.1L129.09 31.0375Z" fill="white"/>
<path d="M131.217 30.925C131.447 30.9132 131.676 30.9531 131.888 31.0416C132.101 31.1302 132.291 31.2654 132.447 31.4375C132.757 31.8336 132.915 32.3315 132.889 32.8375C132.916 33.3359 132.758 33.8264 132.447 34.2125C132.29 34.3817 132.098 34.514 131.886 34.6004C131.674 34.6867 131.446 34.725 131.217 34.7125C130.988 34.7217 130.76 34.6807 130.548 34.5923C130.335 34.5039 130.145 34.3701 129.988 34.2C129.673 33.8151 129.511 33.3249 129.533 32.825C129.513 32.3215 129.675 31.828 129.988 31.4375C130.145 31.2674 130.335 31.1336 130.548 31.0452C130.76 30.9568 130.988 30.9158 131.217 30.925ZM132.102 31.7125C131.987 31.5876 131.848 31.488 131.694 31.42C131.54 31.3519 131.373 31.3168 131.205 31.3168C131.037 31.3168 130.87 31.3519 130.716 31.42C130.561 31.488 130.422 31.5876 130.307 31.7125C130.071 32.0316 129.953 32.4259 129.975 32.825C129.955 33.2238 130.073 33.6174 130.307 33.9375C130.417 34.073 130.557 34.1808 130.715 34.2524C130.873 34.3239 131.045 34.3574 131.217 34.35C131.386 34.3584 131.555 34.3253 131.709 34.2535C131.863 34.1817 131.998 34.0733 132.102 33.9375C132.339 33.6183 132.457 33.2241 132.434 32.825C132.455 32.4261 132.337 32.0326 132.102 31.7125Z" fill="white"/>
<path d="M136.823 31.0375V31.3875H136.098V33.8875C136.098 33.8875 136.098 33.9875 136.098 34.0625C136.109 34.0929 136.127 34.1202 136.151 34.1419C136.174 34.1637 136.202 34.1793 136.233 34.1875C136.319 34.2035 136.406 34.2035 136.491 34.1875C136.585 34.1975 136.68 34.1975 136.774 34.1875V34.575H136.393C135.975 34.575 135.729 34.4375 135.668 34.1625C135.638 33.9009 135.638 33.6366 135.668 33.375V31.3875H135.053V31.0375H135.668V30H136.098V31.1L136.823 31.0375Z" fill="white"/>
<path d="M137.868 29.65C137.868 30.9 137.868 31.525 137.868 31.7125C137.966 31.4678 138.138 31.261 138.359 31.1218C138.58 30.9825 138.839 30.918 139.098 30.9375C139.266 30.9265 139.435 30.9508 139.593 31.0088C139.752 31.0669 139.897 31.1575 140.02 31.275C140.241 31.5432 140.351 31.8883 140.327 32.2375V34.6125H139.897V32.3C139.897 31.6375 139.602 31.3125 138.999 31.3125C138.839 31.2984 138.678 31.3267 138.531 31.3946C138.385 31.4625 138.258 31.5677 138.163 31.7C137.969 32.004 137.874 32.3629 137.893 32.725V34.6125H137.463V29.6125L137.868 29.65Z" fill="white"/>
<path d="M144.04 33.425C143.987 33.7921 143.809 34.1286 143.536 34.375C143.26 34.6166 142.904 34.7419 142.54 34.725C142.31 34.7413 142.08 34.7036 141.867 34.6147C141.653 34.5258 141.463 34.3882 141.311 34.2125C141.002 33.8346 140.844 33.3529 140.868 32.8625C140.853 32.3597 141.014 31.8677 141.323 31.475C141.462 31.3014 141.639 31.1626 141.839 31.0695C142.04 30.9763 142.259 30.9311 142.479 30.9375C142.698 30.9227 142.918 30.9642 143.118 31.0581C143.318 31.152 143.491 31.2953 143.622 31.475C143.901 31.8572 144.044 32.3243 144.028 32.8V32.925H141.385C141.371 33.2901 141.475 33.6498 141.68 33.95C141.813 34.1236 141.993 34.2537 142.198 34.3242C142.403 34.3947 142.624 34.4025 142.833 34.3466C143.043 34.2908 143.231 34.1737 143.376 34.0098C143.521 33.846 143.615 33.6427 143.647 33.425H144.04ZM143.647 32.575C143.643 32.2333 143.526 31.9029 143.315 31.6375C143.213 31.5265 143.089 31.4389 142.951 31.3807C142.813 31.3225 142.665 31.295 142.516 31.3C142.363 31.2891 142.21 31.3152 142.069 31.376C141.928 31.4369 141.803 31.5307 141.704 31.65C141.508 31.9202 141.389 32.2403 141.36 32.575H143.647Z" fill="white"/>
<path d="M150.482 29.65V34.65H149.991L147.704 31.25C147.466 30.9094 147.248 30.5546 147.052 30.1875C147.052 30.5125 147.052 30.9125 147.052 31.375V34.575H146.597V29.575H147.114L149.388 32.9375C149.618 33.2722 149.832 33.6184 150.028 33.975C150.028 33.25 150.028 32.8333 150.028 32.725V29.65H150.482Z" fill="white"/>
<path d="M154.306 33.425C154.253 33.7921 154.075 34.1286 153.802 34.375C153.526 34.6166 153.17 34.7419 152.806 34.725C152.576 34.7413 152.346 34.7036 152.132 34.6147C151.919 34.5258 151.729 34.3882 151.577 34.2125C151.268 33.8346 151.11 33.3529 151.134 32.8625C151.118 32.3597 151.28 31.8677 151.589 31.475C151.728 31.3014 151.905 31.1626 152.105 31.0695C152.306 30.9763 152.524 30.9311 152.745 30.9375C152.964 30.9227 153.184 30.9642 153.384 31.0581C153.583 31.152 153.757 31.2953 153.888 31.475C154.167 31.8572 154.31 32.3243 154.294 32.8V32.925H151.577C151.563 33.2901 151.667 33.6498 151.872 33.95C152.005 34.1236 152.185 34.2537 152.39 34.3242C152.595 34.3947 152.816 34.4025 153.025 34.3466C153.235 34.2908 153.423 34.1737 153.568 34.0098C153.713 33.846 153.807 33.6427 153.839 33.425H154.306ZM153.913 32.575C153.909 32.2333 153.792 31.9029 153.581 31.6375C153.479 31.5265 153.355 31.4389 153.217 31.3807C153.079 31.3225 152.931 31.295 152.781 31.3C152.629 31.2891 152.475 31.3152 152.334 31.376C152.193 31.4369 152.069 31.5307 151.97 31.65C151.774 31.9202 151.655 32.2403 151.626 32.575H153.913Z" fill="white"/>
<path d="M157.662 31.0375L156.433 32.7L157.822 34.6125H157.269L156.334 33.3V33.225V33.1375V33.025C156.281 33.1182 156.22 33.2061 156.15 33.2875L155.228 34.6125H154.712L156.076 32.725L154.847 31.0375H155.4L156.162 32.075L156.273 32.2375L156.371 32.4125L156.605 32.075L157.379 31.0375H157.662Z" fill="white"/>
<path d="M159.617 31.0375V31.3875H158.892V33.65C158.892 33.775 158.892 33.8625 158.892 33.9125C158.885 33.9706 158.885 34.0293 158.892 34.0875C158.899 34.1176 158.915 34.145 158.937 34.1669C158.958 34.1889 158.985 34.2046 159.015 34.2125C159.104 34.2272 159.196 34.2272 159.285 34.2125C159.375 34.2226 159.466 34.2226 159.556 34.2125V34.6H159.187C158.752 34.6 158.506 34.4625 158.449 34.1875C158.428 33.9254 158.428 33.6621 158.449 33.4V31.3875H157.822V31.0375H158.449V30H158.867V31.1L159.617 31.0375Z" fill="white"/>
<path d="M165.432 34.2V34.6125H162.285V29.6125H162.752V34.1625L165.432 34.2Z" fill="white"/>
<path d="M168.739 33.425C168.687 33.7922 168.508 34.1286 168.235 34.375C167.96 34.6167 167.603 34.7419 167.24 34.725C167.02 34.7336 166.801 34.692 166.598 34.6034C166.396 34.5147 166.216 34.3811 166.072 34.2125C165.763 33.8347 165.605 33.353 165.629 32.8625C165.609 32.3611 165.766 31.8689 166.072 31.475C166.211 31.3014 166.387 31.1627 166.588 31.0695C166.788 30.9763 167.007 30.9312 167.227 30.9375C167.448 30.924 167.67 30.966 167.871 31.0597C168.073 31.1534 168.248 31.296 168.383 31.475C168.653 31.861 168.791 32.3265 168.776 32.8V32.925H166.059C166.044 33.2923 166.152 33.654 166.367 33.95C166.467 34.0915 166.6 34.2048 166.755 34.2791C166.91 34.3535 167.081 34.3865 167.252 34.375C167.517 34.389 167.776 34.2976 167.976 34.1203C168.176 33.943 168.299 33.6936 168.321 33.425H168.739ZM168.346 32.575C168.343 32.2334 168.226 31.903 168.014 31.6375C167.917 31.5144 167.793 31.4155 167.652 31.3483C167.512 31.2812 167.358 31.2476 167.203 31.25C167.05 31.2392 166.897 31.2652 166.756 31.3261C166.615 31.3869 166.49 31.4808 166.391 31.6C166.195 31.8703 166.076 32.1904 166.047 32.525L168.346 32.575Z" fill="white"/>
<path d="M172.12 31.0375L170.891 34.6125H170.424L169.071 31.0375H169.526L170.35 33.2125C170.35 33.3875 170.522 33.7125 170.67 34.175C170.805 33.725 170.916 33.4 170.989 33.175L171.752 31.0375H172.12Z" fill="white"/>
<path d="M175.464 33.425C175.407 33.7905 175.229 34.1254 174.96 34.375C174.679 34.6152 174.319 34.7401 173.952 34.725C173.722 34.7413 173.492 34.7036 173.279 34.6147C173.065 34.5258 172.875 34.3882 172.723 34.2125C172.414 33.8346 172.256 33.3529 172.28 32.8625C172.26 32.3611 172.417 31.8689 172.723 31.475C172.871 31.2924 173.06 31.1484 173.274 31.0549C173.487 30.9615 173.72 30.9212 173.952 30.9375C174.171 30.926 174.39 30.969 174.589 31.0626C174.788 31.1563 174.962 31.2978 175.096 31.475C175.371 31.8583 175.51 32.3257 175.489 32.8V32.925H172.784C172.771 33.2901 172.874 33.6498 173.079 33.95C173.179 34.0915 173.313 34.2047 173.468 34.2791C173.623 34.3534 173.794 34.3864 173.964 34.375C174.231 34.3891 174.492 34.2981 174.693 34.1211C174.895 33.944 175.021 33.6946 175.046 33.425H175.464ZM175.059 32.575C175.062 32.2322 174.944 31.8998 174.727 31.6375C174.628 31.5261 174.506 31.4382 174.37 31.3798C174.234 31.3215 174.087 31.2943 173.94 31.3C173.787 31.2891 173.634 31.3152 173.493 31.376C173.352 31.4368 173.227 31.5307 173.128 31.65C172.927 31.9172 172.807 32.2389 172.784 32.575H175.059Z" fill="white"/>
<path d="M176.522 29.65V34.65H176.091V29.65H176.522Z" fill="white"/>
<path d="M29.7522 0H9.58956C4.29339 0 0 4.36522 0 9.75V30.25C0 35.6348 4.29339 40 9.58956 40H29.7522C35.0484 40 39.3418 35.6348 39.3418 30.25V9.75C39.3418 4.36522 35.0484 0 29.7522 0Z" fill="#45A1F0"/>
<path d="M19.3881 8L20.052 9.1875C20.0873 9.24958 20.1122 9.31715 20.1258 9.3875L19.4619 8.1375C19.4504 8.06657 19.4253 7.99862 19.3881 7.9375" fill="#A3A3A3"/>
<path d="M19.4619 8.19995L20.1258 9.44995C20.1314 9.50397 20.1314 9.55843 20.1258 9.61245L19.4619 8.42495C19.4685 8.37099 19.4685 8.31641 19.4619 8.26245" fill="#9E9E9E"/>
<path d="M19.4742 8.3625L20.1381 9.55C20.1441 9.59144 20.1441 9.63356 20.1381 9.675L19.4742 8.425C19.4801 8.38774 19.4801 8.34975 19.4742 8.3125" fill="#999999"/>
<path d="M19.4619 8.47498L20.1258 9.72498C20.1313 9.75807 20.1313 9.79188 20.1258 9.82498L19.4496 8.57498C19.4496 8.57498 19.4496 8.51248 19.4496 8.47498" fill="#949494"/>
<path d="M19.425 8.575L20.1012 9.825C20.1078 9.85799 20.1078 9.89201 20.1012 9.925L19.4373 8.675V8.5625" fill="#8F8F8F"/>
<path d="M19.3881 8.75L20.052 10L19.3881 8.75Z" fill="#8A8A8A"/>
<path d="M15.9334 12.825L16.6096 14.025L14.5687 13.2L13.9048 12.0125L15.9334 12.825Z" fill="#808080"/>
<path d="M19.339 8.75L20.0152 9.9375L17.4334 13.775L16.7695 12.575L19.339 8.75Z" fill="#8B8B8B"/>
<path d="M16.7694 12.575L17.4333 13.825L16.7694 12.575Z" fill="#8A8A8A"/>
<path d="M16.7325 12.625L17.3964 13.875C17.3311 13.9528 17.2501 14.0154 17.1589 14.0586C17.0677 14.1017 16.9684 14.1244 16.8678 14.125C16.7826 14.1429 16.6948 14.1429 16.6096 14.125L15.9334 12.875C16.0186 12.8929 16.1064 12.8929 16.1916 12.875C16.2943 12.8762 16.3959 12.8544 16.4894 12.8112C16.5829 12.768 16.6659 12.7044 16.7325 12.625Z" fill="#858585"/>
<path d="M13.9049 12.0125L14.5688 13.2625C14.4873 13.2496 14.4044 13.2496 14.3229 13.2625C14.1976 13.2645 14.0749 13.2989 13.9664 13.3625C13.2931 13.7412 12.6864 14.2312 12.1714 14.8125L11.5075 13.625C12.0134 13.0048 12.6156 12.4728 13.2902 12.05C13.3997 11.9902 13.5225 11.9601 13.6467 11.9625C13.7319 11.9446 13.8197 11.9446 13.9049 11.9625" fill="#858585"/>
<path d="M11.5075 13.625L12.1714 14.8125C11.8205 15.2373 11.5078 15.6933 11.237 16.175L10.5731 15C10.8378 14.5145 11.1509 14.0579 11.5075 13.6375" fill="#8A8A8A"/>
<path d="M10.5731 15L11.237 16.1875C11.0224 16.5914 10.8335 17.009 10.6715 17.4375C10.6253 17.5352 10.5842 17.6353 10.5485 17.7375L9.88464 16.4875L9.99529 16.1875C10.1607 15.7786 10.3537 15.3818 10.5731 15Z" fill="#8F8F8F"/>
<path d="M9.83549 16.475L10.4994 17.725C10.3271 18.2021 10.1874 18.6908 10.0814 19.1875L9.41748 17.9375C9.51944 17.4397 9.65919 16.9508 9.83549 16.475Z" fill="#949494"/>
<path d="M9.46661 17.9375L10.1305 19.1875C10.0394 19.67 9.98598 20.159 9.97068 20.65L9.29449 19.4C9.30893 18.9083 9.36653 18.4188 9.46661 17.9375Z" fill="#999999"/>
<path d="M9.29452 19.4L9.9707 20.65C9.94863 21.2077 9.99405 21.7661 10.1059 22.3125L9.42976 21.0625C9.32955 20.5144 9.28423 19.9574 9.29452 19.4Z" fill="#9E9E9E"/>
<path d="M9.42975 21.0625L10.1059 22.3125C10.1059 22.4625 10.1059 22.5875 10.192 22.6875C10.2072 22.7396 10.2278 22.7899 10.2535 22.8375L9.58957 21.5875C9.55775 21.5415 9.53289 21.491 9.51581 21.4375L9.42975 21.0625Z" fill="#A3A3A3"/>
<path d="M20.679 14.075L21.3429 15.2625L21.2937 16.4875L20.6176 15.2875L20.679 14.075Z" fill="#9C9C9C"/>
<path d="M20.6176 15.2875L21.2937 16.4875L21.1954 18.6125L20.5315 17.4125L20.6176 15.2875Z" fill="#9C9C9C"/>
<path d="M20.47 18.6625L21.1339 19.8625L17.3104 17.4125L16.6465 16.2125L20.47 18.6625Z" fill="#808080"/>
<path d="M20.5315 17.4125L21.1954 18.6125L21.1339 19.8625L20.47 18.6625L20.5315 17.4125Z" fill="#9C9C9C"/>
<path d="M12.2943 23.025L12.9582 24.2125C12.9935 24.2746 13.0184 24.3422 13.032 24.4125L12.3681 23.1625C12.3566 23.0916 12.3315 23.0236 12.2943 22.9625" fill="#A3A3A3"/>
<path d="M12.3804 23.225L13.0443 24.475C13.0568 24.5284 13.0568 24.5841 13.0443 24.6375L12.3804 23.3875C12.3864 23.3377 12.3864 23.2873 12.3804 23.2375" fill="#9E9E9E"/>
<path d="M12.3927 23.375L13.0566 24.625V24.725L12.3804 23.475C12.3864 23.4419 12.3864 23.4081 12.3804 23.375" fill="#999999"/>
<path d="M15.4662 19.05L16.1301 20.3C16.1301 20.575 16.2162 20.8626 16.2654 21.1376L15.6015 19.8875C15.6015 19.6125 15.5031 19.3375 15.4662 19.05Z" fill="#9E9E9E"/>
<path d="M15.6015 19.8875L16.2654 21.1375C16.3709 21.6047 16.5191 22.0608 16.708 22.5C16.7694 22.652 16.8434 22.7983 16.9293 22.9375L16.2531 21.6875C16.1761 21.5454 16.1063 21.3994 16.0441 21.25C15.8452 20.7888 15.6968 20.3067 15.6015 19.8125" fill="#A3A3A3"/>
<path d="M6.47911 28.475L7.1553 29.725C7.0397 29.7197 6.92728 29.6848 6.82844 29.6237C6.72959 29.5625 6.6475 29.477 6.58976 29.375L5.91357 28.125C5.97376 28.2248 6.05644 28.3086 6.15478 28.3694C6.25312 28.4303 6.36429 28.4665 6.47911 28.475Z" fill="#858585"/>
<path d="M24.9943 19.55L25.6582 20.7375C25.3872 20.241 25.0089 19.8136 24.5517 19.4875C23.5472 18.8549 22.3749 18.5537 21.1954 18.625L20.5315 17.375C21.7101 17.3133 22.8796 17.6138 23.8878 18.2375C24.3428 18.5661 24.7206 18.993 24.9943 19.4875" fill="#858585"/>
<path d="M12.3804 23.475L13.0566 24.675L12.2575 29.225L11.5936 28.0375L12.3804 23.475Z" fill="#989898"/>
<path d="M10.9051 28.625L11.569 29.825L7.15531 29.675L6.47913 28.475L10.9051 28.625Z" fill="#808080"/>
<path d="M11.5935 28.0375L12.2574 29.225L11.5812 27.975" fill="#999999"/>
<path d="M11.5812 28.0625L12.2574 29.3125V29.4125L11.5935 28.1625C11.6005 28.1295 11.6005 28.0955 11.5935 28.0625" fill="#949494"/>
<path d="M11.5566 28.1625L12.2205 29.4125V29.5125L11.5443 28.325C11.5489 28.2876 11.5489 28.2498 11.5443 28.2125" fill="#8F8F8F"/>
<path d="M11.5074 28.275L12.1836 29.4625L12.1098 29.575L11.4337 28.325L11.5074 28.225" fill="#8A8A8A"/>
<path d="M11.4337 28.375L12.1099 29.625C12.0412 29.7019 11.9578 29.7638 11.8648 29.8068C11.7718 29.8498 11.6711 29.873 11.5689 29.875L10.905 28.625C11.0056 28.6244 11.1049 28.6017 11.1961 28.5586C11.2874 28.5154 11.3684 28.4528 11.4337 28.375Z" fill="#858585"/>
<path d="M25.1664 18.175L25.8426 19.425C26.0903 19.8827 26.2685 20.3758 26.3713 20.8875L25.7074 19.7C25.6036 19.1867 25.421 18.6932 25.1664 18.2375" fill="#A3A3A3"/>
<path d="M25.7074 19.6376L26.3713 20.8251V20.9876C26.4649 21.486 26.5102 21.9926 26.5065 22.5001L25.818 21.3126C25.8466 20.8062 25.8136 20.2982 25.7197 19.8001C25.7265 19.7461 25.7265 19.6915 25.7197 19.6376" fill="#9E9E9E"/>
<path d="M25.8181 21.3126L26.4942 22.5001C26.4942 22.8167 26.4697 23.1292 26.4205 23.4376L25.7566 22.1876C25.7958 21.8808 25.8164 21.5719 25.8181 21.2626" fill="#999999"/>
<path d="M29.2481 20.6L29.912 21.85C29.8119 21.8043 29.7266 21.7306 29.6661 21.6375L29.0023 20.3875C29.0273 20.4377 29.062 20.4823 29.1042 20.5188C29.1464 20.5553 29.1954 20.5829 29.2481 20.6Z" fill="#858585"/>
<path d="M20.6176 26.0125L21.2815 27.2625C20.6432 27.1158 20.0181 26.9151 19.4127 26.6625C18.5603 26.2929 17.8061 25.7232 17.2121 25C17.0182 24.778 16.8492 24.5349 16.708 24.275L16.0318 23.025C16.1844 23.2844 16.3571 23.531 16.5482 23.7625C17.1476 24.4413 17.892 24.9715 18.7243 25.3125C19.3287 25.5709 19.9539 25.7758 20.593 25.925" fill="#858585"/>
<path d="M20.7036 23.875L21.3798 25.075L21.2814 27.2L20.6176 26.0125L20.7036 23.875Z" fill="#9C9C9C"/>
<path d="M30.6866 21.1875L31.3628 22.3875L29.9121 21.8L29.2482 20.6L30.6866 21.1875Z" fill="#808080"/>
<path d="M30.9325 21.4L31.6087 22.65C31.5518 22.5537 31.4654 22.479 31.3628 22.4375L30.7358 21.25C30.7886 21.2671 30.8375 21.2947 30.8797 21.3312C30.9219 21.3676 30.9566 21.4123 30.9817 21.4625" fill="#858585"/>
<path d="M24.5886 25.075L25.2648 26.275L21.22 28.4125L20.5561 27.225L24.5886 25.075Z" fill="#808080"/>
<path d="M24.0846 31.25L24.7608 32.5C24.7139 32.4635 24.676 32.4165 24.6501 32.3625L23.9739 31.1125L24.0846 31.25Z" fill="#858585"/>
<path d="M26.4082 33.275L27.0721 34.4625L24.7607 32.3875L24.0845 31.1875L26.4082 33.275Z" fill="#808080"/>
<path d="M33.5389 16.7625L34.2028 18.0125C34.2094 18.0454 34.2094 18.0795 34.2028 18.1125C34.2766 18.3749 34.3749 18.7375 34.461 19.1749L33.7971 17.925C33.7266 17.5659 33.6363 17.2112 33.5266 16.8625V16.7625" fill="#A3A3A3"/>
<path d="M33.8463 17.9249L34.5101 19.1749C34.7088 20.1488 34.7913 21.1435 34.756 22.1374L34.0921 20.8874C34.1207 19.8936 34.0382 18.8998 33.8463 17.9249Z" fill="#9E9E9E"/>
<path d="M34.0922 20.8875L34.7561 22.1375C34.7314 22.9479 34.641 23.7548 34.4856 24.55L33.8094 23.3C33.9683 22.5008 34.0629 21.6898 34.0922 20.875" fill="#999999"/>
<path d="M33.8094 23.3125L34.4855 24.5625C34.3128 25.3741 34.0827 26.172 33.7971 26.95L33.1332 25.7C33.4206 24.9237 33.6468 24.1253 33.8094 23.3125Z" fill="#949494"/>
<path d="M33.1947 25.7L33.8586 26.95L33.6742 27.4375C33.4113 28.1002 33.1032 28.7434 32.7521 29.3625L32.0882 28.1125C32.4393 27.4891 32.7474 26.8417 33.0103 26.175L33.1947 25.7Z" fill="#8F8F8F"/>
<path d="M32.0267 28.1124L32.6906 29.3624C32.2497 30.1603 31.7351 30.9137 31.1538 31.6124L30.4776 30.4249C31.0575 29.7223 31.5758 28.9694 32.0267 28.1749" fill="#8A8A8A"/>
<path d="M30.4776 30.3624L31.1538 31.5499C30.1664 32.7526 28.9705 33.7609 27.6253 34.5249C27.5536 34.5647 27.4734 34.5862 27.3917 34.5874C27.2737 34.5872 27.1599 34.5427 27.0721 34.4624L26.4082 33.2749C26.4988 33.3487 26.6117 33.3885 26.7279 33.3874C26.8046 33.406 26.8847 33.406 26.9614 33.3874C28.2964 32.6136 29.4867 31.6066 30.4776 30.4124" fill="#858585"/>
<path d="M15.5154 4.69995C15.6809 4.6998 15.8414 4.75713 15.9703 4.86245L19.2283 7.81245C19.3604 7.92478 19.4463 8.08335 19.4691 8.2569C19.4918 8.43045 19.4498 8.60636 19.3513 8.74995L16.7695 12.575C16.7041 12.6686 16.6174 12.7448 16.5168 12.797C16.4161 12.8493 16.3046 12.876 16.1916 12.875C16.1065 12.8928 16.0186 12.8928 15.9335 12.875L13.9049 12.0625C13.8197 12.0446 13.7319 12.0446 13.6467 12.0625C13.5225 12.0601 13.3997 12.0902 13.2902 12.15C11.78 13.1242 10.6233 14.5723 9.9953 16.275C9.27753 17.9296 9.10922 19.7769 9.51582 21.5375C9.54771 21.6411 9.60172 21.7363 9.67398 21.8162C9.74623 21.8962 9.83496 21.9589 9.93383 22L11.9624 22.825C12.1086 22.8787 12.2311 22.9838 12.3078 23.1214C12.3844 23.2589 12.4102 23.4198 12.3804 23.575L11.5936 28.1375C11.5625 28.3008 11.4772 28.4484 11.3518 28.5554C11.2265 28.6624 11.0687 28.7222 10.9051 28.725L6.47913 28.575C6.3397 28.5681 6.20577 28.5176 6.09571 28.4303C5.98565 28.3431 5.90485 28.2233 5.86441 28.0875C4.64274 23.7416 4.95592 19.0981 6.7496 14.9625C8.33454 10.716 11.314 7.15687 15.1835 4.88745C15.2738 4.79342 15.3892 4.72826 15.5154 4.69995Z" fill="#F4F2F2"/>
<path d="M25.818 22.2375C25.7156 21.4665 25.5087 20.7135 25.2033 20C24.92 19.3287 24.466 18.7463 23.8878 18.3125C22.8773 17.6946 21.7095 17.3945 20.5315 17.45L20.47 18.7L16.6465 16.2L20.679 14.05V15.3C21.3133 15.4468 21.9343 15.6475 22.5355 15.9C23.3531 16.2651 24.0799 16.8118 24.6624 17.5C25.2221 18.1765 25.5954 18.9917 25.7443 19.8625C25.8738 20.6472 25.8986 21.4461 25.818 22.2375Z" fill="#F4F2F2"/>
<path d="M20.5561 27.225V25.975C19.9216 25.8239 19.3006 25.6191 18.6997 25.3625C17.8674 25.0215 17.1231 24.4913 16.5236 23.8125C15.9658 23.1396 15.5926 22.329 15.4417 21.4625C15.3266 20.6333 15.3266 19.7918 15.4417 18.9625C15.5091 19.7724 15.6913 20.5681 15.9826 21.325C16.2614 22.0025 16.7161 22.5901 17.2981 23.025C18.3074 23.645 19.4771 23.9412 20.6545 23.875L20.7159 22.625L24.5395 25.125L20.5561 27.225Z" fill="#F4F2F2"/>
<path d="M29.9981 16.4125L33.1455 16.5125C33.2434 16.5205 33.3367 16.5581 33.4134 16.6204C33.4901 16.6828 33.5466 16.7671 33.5758 16.8625C34.4412 19.946 34.2194 23.2401 32.9488 26.175C31.8201 29.1901 29.7062 31.7189 26.9614 33.3375C26.8847 33.3561 26.8046 33.3561 26.7278 33.3375C26.6117 33.3385 26.4988 33.2988 26.4082 33.225L24.0846 31.25C23.9943 31.1681 23.9368 31.0553 23.9232 30.9331C23.9096 30.8108 23.9408 30.6878 24.0108 30.5875L25.8181 27.8C25.863 27.7331 25.9236 27.6786 25.9945 27.6415C26.0653 27.6044 26.1441 27.5858 26.2238 27.5875C26.2847 27.5757 26.3473 27.5757 26.4082 27.5875L27.8466 28.175H28.031C28.1166 28.1733 28.2007 28.152 28.2769 28.1125C29.3497 27.424 30.1704 26.3963 30.6128 25.1875C31.1365 24.0117 31.2577 22.6915 30.9571 21.4375C30.9053 21.3523 30.8276 21.2865 30.7358 21.25L29.2974 20.6625C29.1963 20.6218 29.1112 20.5482 29.0556 20.4533C29 20.3583 28.9769 20.2472 28.99 20.1375L29.5064 16.8375C29.5265 16.7193 29.5867 16.6121 29.6766 16.5345C29.7664 16.4568 29.8802 16.4136 29.9981 16.4125Z" fill="#F4F2F2"/>
</g>
<defs>
<clipPath id="clip0_190_2563">
<rect width="176.522" height="40" fill="white"/>
</clipPath>
</defs>
</svg>
