<svg width="16" height="16" viewBox="0 0 16 16" fill="none" xmlns="http://www.w3.org/2000/svg">
<mask id="mask0_190_2522" style="mask-type:alpha" maskUnits="userSpaceOnUse" x="0" y="0" width="16" height="16">
<rect width="16" height="16" fill="#D9D9D9"/>
</mask>
<g mask="url(#mask0_190_2522)">
<path d="M2.86667 13C2.53333 13 2.25 12.8833 2.01667 12.65C1.78333 12.4167 1.66667 12.1333 1.66667 11.8V4.2C1.66667 3.86667 1.78333 3.58333 2.01667 3.35C2.25 3.11667 2.53333 3 2.86667 3H13.1333C13.4667 3 13.75 3.11667 13.9833 3.35C14.2167 3.58333 14.3333 3.86667 14.3333 4.2V11.8C14.3333 12.1333 14.2167 12.4167 13.9833 12.65C13.75 12.8833 13.4667 13 13.1333 13H2.86667ZM8 8.36667L2.66667 4.96667V11.8C2.66667 11.8556 2.68622 11.9029 2.72533 11.942C2.764 11.9807 2.81111 12 2.86667 12H13.1333C13.1889 12 13.2362 11.9807 13.2753 11.942C13.314 11.9029 13.3333 11.8556 13.3333 11.8V4.96667L8 8.36667ZM8 7.33333L13.2333 4H2.76667L8 7.33333ZM2.66667 4.96667V4V11.8C2.66667 11.8556 2.68622 11.9029 2.72533 11.942C2.764 11.9807 2.81111 12 2.86667 12H2.66667V11.8V4.96667Z" fill="white"/>
</g>
</svg>
