<svg width="16" height="16" viewBox="0 0 16 16" fill="none" xmlns="http://www.w3.org/2000/svg">
<mask id="mask0_190_558" style="mask-type:alpha" maskUnits="userSpaceOnUse" x="0" y="0" width="16" height="16">
<rect width="16" height="16" fill="#D9D9D9"/>
</mask>
<g mask="url(#mask0_190_558)">
<path d="M2.86666 13C2.53332 13 2.24999 12.8833 2.01666 12.65C1.78332 12.4167 1.66666 12.1333 1.66666 11.8V4.2C1.66666 3.86667 1.78332 3.58333 2.01666 3.35C2.24999 3.11667 2.53332 3 2.86666 3H13.1333C13.4667 3 13.75 3.11667 13.9833 3.35C14.2167 3.58333 14.3333 3.86667 14.3333 4.2V11.8C14.3333 12.1333 14.2167 12.4167 13.9833 12.65C13.75 12.8833 13.4667 13 13.1333 13H2.86666ZM7.99999 8.36667L2.66666 4.96667V11.8C2.66666 11.8556 2.68621 11.9029 2.72532 11.942C2.76399 11.9807 2.8111 12 2.86666 12H13.1333C13.1889 12 13.2362 11.9807 13.2753 11.942C13.314 11.9029 13.3333 11.8556 13.3333 11.8V4.96667L7.99999 8.36667ZM7.99999 7.33333L13.2333 4H2.76666L7.99999 7.33333ZM2.66666 4.96667V4V11.8C2.66666 11.8556 2.68621 11.9029 2.72532 11.942C2.76399 11.9807 2.8111 12 2.86666 12H2.66666V11.8V4.96667Z" fill="#1C1B1F"/>
</g>
</svg>
