<svg width="20" height="20" viewBox="0 0 20 20" fill="none" xmlns="http://www.w3.org/2000/svg">
<mask id="mask0_127_1537" style="mask-type:alpha" maskUnits="userSpaceOnUse" x="0" y="0" width="20" height="20">
<path d="M10.0075 0.833374C4.94094 0.833374 0.833313 4.93425 0.833313 9.9925C0.833313 13.8748 3.24956 17.1917 6.66251 18.5259C6.57946 17.8023 6.5115 16.6866 6.69272 15.8951C6.85883 15.1789 7.76493 11.3419 7.76493 11.3419C7.76493 11.3419 7.4931 10.7916 7.4931 9.98496C7.4931 8.71098 8.23308 7.76114 9.15427 7.76114C9.93955 7.76114 10.3171 8.34914 10.3171 9.05021C10.3171 9.8342 9.81874 11.0102 9.55446 12.1032C9.33549 13.0154 10.0151 13.7617 10.9136 13.7617C12.5446 13.7617 13.798 12.0429 13.798 9.57035C13.798 7.37669 12.2199 5.84639 9.9622 5.84639C7.34964 5.84639 5.81683 7.79883 5.81683 9.81912C5.81683 10.6031 6.11886 11.4474 6.4964 11.9072C6.5719 11.9977 6.57946 12.0806 6.5568 12.1711C6.48885 12.4576 6.33028 13.0832 6.30008 13.2114C6.26232 13.3772 6.16416 13.4149 5.9905 13.332C4.84278 12.7968 4.12545 11.1308 4.12545 9.78143C4.12545 6.89423 6.22457 4.24072 10.1887 4.24072C13.3676 4.24072 15.8443 6.50223 15.8443 9.53266C15.8443 12.6912 13.8509 15.2317 11.0873 15.2317C10.1585 15.2317 9.28263 14.7492 8.98815 14.1763C8.98815 14.1763 8.52756 15.9252 8.4143 16.3549C8.21042 17.154 7.65167 18.149 7.27413 18.7596C8.13492 19.0235 9.04101 19.1667 9.99241 19.1667C15.059 19.1667 19.1666 15.0658 19.1666 10.0076C19.1817 4.93425 15.0741 0.833374 10.0075 0.833374Z" fill="white"/>
</mask>
<g mask="url(#mask0_127_1537)">
<path d="M9.99998 19.1667C15.0626 19.1667 19.1666 15.0626 19.1666 10C19.1666 4.93743 15.0626 0.833374 9.99998 0.833374C4.93737 0.833374 0.833313 4.93743 0.833313 10C0.833313 15.0626 4.93737 19.1667 9.99998 19.1667Z" fill="white"/>
</g>
</svg>
