<svg width="16" height="16" viewBox="0 0 16 16" fill="none" xmlns="http://www.w3.org/2000/svg">
<mask id="mask0_190_187" style="mask-type:alpha" maskUnits="userSpaceOnUse" x="0" y="0" width="16" height="16">
<rect width="16" height="16" fill="#D9D9D9"/>
</mask>
<g mask="url(#mask0_190_187)">
<path d="M12.9499 13.6333C11.661 13.6333 10.3806 13.3248 9.1086 12.7079C7.83616 12.0915 6.69994 11.2833 5.69994 10.2833C4.69994 9.28325 3.89172 8.14992 3.27527 6.88325C2.65838 5.61659 2.34994 4.33325 2.34994 3.03325C2.34994 2.83325 2.4166 2.66659 2.54994 2.53325C2.68327 2.39992 2.84994 2.33325 3.04994 2.33325H5.2166C5.39438 2.33325 5.54705 2.38592 5.6746 2.49125C5.8026 2.59703 5.88327 2.73325 5.9166 2.89992L6.29994 4.86659C6.32216 5.03325 6.3166 5.18325 6.28327 5.31659C6.24994 5.44992 6.17772 5.56659 6.0666 5.66659L4.53327 7.16659C5.0666 8.05547 5.69705 8.86103 6.4246 9.58325C7.1526 10.3055 7.97772 10.9333 8.89994 11.4666L10.3833 9.96659C10.4944 9.85547 10.625 9.7777 10.7753 9.73325C10.925 9.68881 11.0777 9.6777 11.2333 9.69992L13.0833 10.0833C13.2499 10.1166 13.3862 10.1944 13.4919 10.3166C13.5973 10.4388 13.6499 10.5888 13.6499 10.7666V12.9333C13.6499 13.1333 13.5833 13.2999 13.4499 13.4333C13.3166 13.5666 13.1499 13.6333 12.9499 13.6333ZM4.0666 6.21659L5.24994 5.08325C5.27216 5.06103 5.28616 5.03592 5.29194 5.00792C5.29727 4.98036 5.29438 4.95547 5.28327 4.93325L4.99994 3.43325C4.98883 3.39992 4.97216 3.37481 4.94994 3.35792C4.92772 3.34147 4.89994 3.33325 4.8666 3.33325H3.44994C3.4166 3.33325 3.39149 3.34147 3.3746 3.35792C3.35816 3.37481 3.34994 3.39436 3.34994 3.41659C3.38327 3.87214 3.45838 4.33592 3.57527 4.80792C3.69172 5.28036 3.85549 5.74992 4.0666 6.21659ZM9.83327 11.9333C10.2777 12.1444 10.7388 12.3055 11.2166 12.4166C11.6944 12.5277 12.1444 12.5888 12.5666 12.5999C12.5888 12.5999 12.6084 12.5915 12.6253 12.5746C12.6417 12.5581 12.6499 12.5388 12.6499 12.5166V11.1166C12.6499 11.0833 12.6417 11.0555 12.6253 11.0333C12.6084 11.011 12.5833 10.9944 12.5499 10.9833L11.1499 10.6999C11.1277 10.6888 11.1055 10.6888 11.0833 10.6999L11.0166 10.7333L9.83327 11.9333Z" fill="#1C1B1F"/>
</g>
</svg>
