<svg width="16" height="16" viewBox="0 0 16 16" fill="none" xmlns="http://www.w3.org/2000/svg">
<mask id="mask0_190_2545" style="mask-type:alpha" maskUnits="userSpaceOnUse" x="0" y="0" width="16" height="16">
<rect width="16" height="16" fill="#D9D9D9"/>
</mask>
<g mask="url(#mask0_190_2545)">
<path d="M12.9499 13.6334C11.6611 13.6334 10.3806 13.3249 9.10861 12.708C7.83617 12.0916 6.69995 11.2834 5.69995 10.2834C4.69995 9.28337 3.89172 8.15004 3.27528 6.88337C2.65839 5.61671 2.34995 4.33337 2.34995 3.03337C2.34995 2.83337 2.41661 2.66671 2.54995 2.53337C2.68328 2.40004 2.84994 2.33337 3.04994 2.33337H5.21661C5.39439 2.33337 5.54706 2.38604 5.67461 2.49137C5.80261 2.59715 5.88328 2.73337 5.91661 2.90004L6.29994 4.86671C6.32217 5.03337 6.31661 5.18337 6.28328 5.31671C6.24995 5.45004 6.17772 5.56671 6.06661 5.66671L4.53328 7.16671C5.06661 8.0556 5.69706 8.86115 6.42461 9.58337C7.15261 10.3056 7.97772 10.9334 8.89995 11.4667L10.3833 9.96671C10.4944 9.8556 10.6251 9.77782 10.7753 9.73337C10.9251 9.68893 11.0777 9.67782 11.2333 9.70004L13.0833 10.0834C13.2499 10.1167 13.3862 10.1945 13.4919 10.3167C13.5973 10.4389 13.6499 10.5889 13.6499 10.7667V12.9334C13.6499 13.1334 13.5833 13.3 13.4499 13.4334C13.3166 13.5667 13.1499 13.6334 12.9499 13.6334ZM4.06661 6.21671L5.24995 5.08337C5.27217 5.06115 5.28617 5.03604 5.29195 5.00804C5.29728 4.98049 5.29439 4.9556 5.28328 4.93337L4.99995 3.43337C4.98883 3.40004 4.97217 3.37493 4.94995 3.35804C4.92772 3.3416 4.89995 3.33337 4.86661 3.33337H3.44995C3.41661 3.33337 3.3915 3.3416 3.37461 3.35804C3.35817 3.37493 3.34995 3.39449 3.34995 3.41671C3.38328 3.87226 3.45839 4.33604 3.57528 4.80804C3.69172 5.28049 3.8555 5.75004 4.06661 6.21671ZM9.83328 11.9334C10.2777 12.1445 10.7388 12.3056 11.2166 12.4167C11.6944 12.5278 12.1444 12.5889 12.5666 12.6C12.5888 12.6 12.6084 12.5916 12.6253 12.5747C12.6417 12.5583 12.6499 12.5389 12.6499 12.5167V11.1167C12.6499 11.0834 12.6417 11.0556 12.6253 11.0334C12.6084 11.0112 12.5833 10.9945 12.5499 10.9834L11.1499 10.7C11.1277 10.6889 11.1055 10.6889 11.0833 10.7L11.0166 10.7334L9.83328 11.9334Z" fill="white"/>
</g>
</svg>
