<svg width="20" height="20" viewBox="0 0 20 20" fill="none" xmlns="http://www.w3.org/2000/svg">
<path d="M7.17009 16.6667C13.7739 16.6667 17.3859 11.2159 17.3859 6.48894C17.3859 6.33412 17.3859 6.17999 17.3754 6.02657C18.0781 5.5202 18.6846 4.89322 19.1667 4.17499C18.5115 4.46441 17.8163 4.65413 17.1045 4.73779C17.8541 4.2908 18.415 3.58766 18.683 2.75929C17.9782 3.17599 17.2072 3.46963 16.4031 3.62754C15.8617 3.05407 15.1458 2.67433 14.366 2.54708C13.5862 2.41984 12.7861 2.55219 12.0894 2.92365C11.3927 3.29511 10.8383 3.88498 10.512 4.60196C10.1857 5.31895 10.1057 6.12309 10.2844 6.88994C8.85692 6.8186 7.46047 6.44901 6.18566 5.80515C4.91086 5.16129 3.7862 4.25756 2.88469 3.15262C2.42555 3.94009 2.28493 4.87229 2.49145 5.75943C2.69797 6.64656 3.2361 7.42193 3.99629 7.92766C3.42488 7.91098 2.86591 7.7574 2.36669 7.47993V7.52526C2.36691 8.35113 2.65387 9.15149 3.17888 9.7906C3.7039 10.4297 4.43465 10.8682 5.24719 11.0317C4.7186 11.1754 4.16399 11.1964 3.62599 11.0931C3.85551 11.8038 4.30221 12.4253 4.90363 12.8707C5.50506 13.3161 6.23114 13.5631 6.98039 13.5772C6.23596 14.1602 5.38348 14.5912 4.4717 14.8456C3.55992 15.1 2.60674 15.1728 1.66669 15.0599C3.30865 16.1096 5.21913 16.6664 7.17009 16.6639" fill="white"/>
</svg>
